M48
METRIC,LZ,000.000
;FILE_FORMAT=3:3
;TYPE=PLATED
;Layer: PTH_Through_Via
;EasyEDA v6.5.54, 2026-06-07 20:14:10
;b9cd64c203934d81a84768f3e5580de7,e59cfd7f91104955829aa9c13f43603c,10
;Gerber Generator version 0.2
;Holesize 1 = 0.310 mm
T01C0.310
%
G05
G90
T01
X031971Y098015
X039972Y104111
X073627Y098650
X068547Y099793
X068293Y094459
X071594Y097121
X070197Y097248
X074515Y091152
X070832Y093438
X070832Y092168
X073880Y090644
X070578Y089882
X070832Y088104
X073118Y083024
X077563Y088104
X076293Y102836
X058005Y099534
X071467Y083151
X058005Y098264
X065134Y092427
X070197Y076293
X080357Y088993
X078833Y088993
X065611Y076230
X069562Y082770
X070832Y086961
X071975Y089755
X064482Y083634
X068419Y081246
X080357Y085310
X086072Y095724
X084929Y081881
X040860Y100804
X040352Y099534
X040606Y089374
X055973Y095216
X054195Y095216
X040606Y098264
X044924Y102201
X063339Y101947
X064482Y097121
X064609Y094327
X028160Y077436
X040860Y076801
X017111Y096232
X020159Y096232
X040479Y095724
X059910Y068546
X046067Y085564
X061434Y067276
X047464Y085310
X008729Y099915
X013682Y097248
X028795Y092803
X050004Y085564
X006824Y098010
X006824Y095994
X030954Y099407
X030954Y097756
M30
