M48
METRIC,LZ,000.000
;FILE_FORMAT=3:3
;TYPE=PLATED
;Layer: PTH_Through
;EasyEDA v6.5.54, 2026-06-07 20:14:10
;b9cd64c203934d81a84768f3e5580de7,e59cfd7f91104955829aa9c13f43603c,10
;Gerber Generator version 0.2
;Holesize 1 = 0.310 mm
T01C0.310
;Holesize 2 = 0.600 mm
T02C0.600
;Holesize 3 = 0.801 mm
T03C0.801
;Holesize 4 = 0.915 mm
T04C0.915
;Holesize 5 = 1.016 mm
T05C1.016
;Holesize 6 = 1.021 mm
T06C1.021
;Holesize 7 = 1.022 mm
T07C1.022
;Holesize 8 = 1.101 mm
T08C1.101
;Holesize 9 = 3.000 mm
T09C3.000
%
G05
G90
T01
X031971Y098015
X039972Y104111
X073627Y098650
X068547Y099793
X068293Y094459
X071594Y097121
X070197Y097248
X074515Y091152
X070832Y093438
X070832Y092168
X073880Y090644
X070578Y089882
X070832Y088104
X073118Y083024
X077563Y088104
X076293Y102836
X058005Y099534
X071467Y083151
X058005Y098264
X065134Y092427
X070197Y076293
X080357Y088993
X078833Y088993
X065611Y076230
X069562Y082770
X070832Y086961
X071975Y089755
X064482Y083634
X068419Y081246
X080357Y085310
X086072Y095724
X084929Y081881
X040860Y100804
X040352Y099534
X040606Y089374
X055973Y095216
X054195Y095216
X040606Y098264
X044924Y102201
X063339Y101947
X064482Y097121
X064609Y094327
X028160Y077436
X040860Y076801
X017111Y096232
X020159Y096232
X040479Y095724
X059910Y068546
X046067Y085564
X061434Y067276
X047464Y085310
X008729Y099915
X013682Y097248
X028795Y092803
X050004Y085564
X006824Y098010
X006824Y095994
X030954Y099407
X030954Y097756
T02
X075285Y100831G85X075285Y099931
X066635Y100831G85X066635Y099931
X075285Y104881G85X075285Y104281
X066635Y104881G85X066635Y104281
T03
X035334Y078403G85X035334Y078408
X035334Y080943G85X035334Y080948
X035334Y083483G85X035334Y083488
X035334Y086023G85X035334Y086028
X035334Y088563G85X035334Y088568
T04
X087850Y038828
X090390Y038828
X092930Y038828
X095470Y038828
X098010Y038828
T05
X058132Y071213
X055592Y071213
X053052Y071213
X050512Y071213
X047972Y071213
X045432Y071213
X042892Y071213
X040352Y071213
X037812Y071213
X035272Y071213
T06
X015968Y101693
X018508Y101693
X021048Y101693
X004411Y096994
X004411Y099534
X004411Y102074
X004792Y088739
X004792Y086199
X004792Y083659
T07
X022699Y069562
X025239Y069562
X027779Y069562
X030319Y069562
T08
X005808Y064863
X005808Y062323
X005808Y059783
X095724Y061053
X095724Y063593
X095724Y066133
X005681Y027271
X008221Y027271
X010761Y027271
X014190Y027271
X016730Y027271
X019270Y027271
T09
X029049Y060216G85X029049Y060366
M30
