G04 Layer: TopSilkscreenLayer*
G04 EasyEDA v6.5.54, 2026-06-07 20:14:10*
G04 b9cd64c203934d81a84768f3e5580de7,e59cfd7f91104955829aa9c13f43603c,10*
G04 Gerber Generator version 0.2*
G04 Scale: 100 percent, Rotated: No, Reflected: No *
G04 Dimensions in millimeters *
G04 leading zeros omitted , absolute positions ,4 integer and 5 decimal *
%FSLAX45Y45*%
%MOMM*%

%ADD10C,0.2500*%
%ADD11C,0.1524*%
%ADD12C,0.0325*%
%ADD13C,0.1016*%
%ADD14C,0.2032*%
%ADD15C,0.1270*%
%ADD16C,0.0130*%
%ADD17C,0.2540*%
%ADD18C,0.1300*%
%ADD19C,0.1000*%
%ADD20C,0.2540*%
%ADD21C,0.1520*%
%ADD22C,0.1500*%

%LPD*%
D10*
X271713Y8937447D02*
G01*
X271713Y8855659D01*
X1558731Y10406329D02*
G01*
X1640519Y10406329D01*
X1887407Y10407853D02*
G01*
X1805365Y10407853D01*
X1846513Y10448747D02*
G01*
X1846513Y10366959D01*
X2206431Y10347909D02*
G01*
X2206431Y10443413D01*
X2149281Y10347909D02*
G01*
X2158171Y10352481D01*
X2167315Y10361371D01*
X2171887Y10370515D01*
X2176459Y10384231D01*
X2176459Y10406837D01*
X2171887Y10420553D01*
X2167315Y10429697D01*
X2158171Y10438841D01*
X2149281Y10443413D01*
X2130993Y10443413D01*
X2121849Y10438841D01*
X2112705Y10429697D01*
X2108133Y10420553D01*
X2103815Y10406837D01*
X2103815Y10384231D01*
X2108133Y10370515D01*
X2112705Y10361371D01*
X2121849Y10352481D01*
X2130993Y10347909D01*
X2149281Y10347909D01*
X2028123Y10347909D02*
G01*
X2073589Y10411409D01*
X2005517Y10411409D01*
X2028123Y10347909D02*
G01*
X2028123Y10443413D01*
D11*
X440115Y9699447D02*
G01*
X549081Y9699447D01*
X440115Y9699447D02*
G01*
X440115Y9746183D01*
X445195Y9761677D01*
X450529Y9767011D01*
X460943Y9772091D01*
X471357Y9772091D01*
X481771Y9767011D01*
X486851Y9761677D01*
X491931Y9746183D01*
X491931Y9699447D01*
X491931Y9735769D02*
G01*
X549081Y9772091D01*
X460943Y9806381D02*
G01*
X455609Y9816795D01*
X440115Y9832543D01*
X549081Y9832543D01*
X440115Y9929063D02*
G01*
X440115Y9877247D01*
X486851Y9871913D01*
X481771Y9877247D01*
X476437Y9892741D01*
X476437Y9908235D01*
X481771Y9923983D01*
X491931Y9934397D01*
X507679Y9939477D01*
X518093Y9939477D01*
X533587Y9934397D01*
X544001Y9923983D01*
X549081Y9908235D01*
X549081Y9892741D01*
X544001Y9877247D01*
X538921Y9871913D01*
X528507Y9866833D01*
X656015Y9915347D02*
G01*
X764981Y9915347D01*
X656015Y9915347D02*
G01*
X656015Y9962083D01*
X661095Y9977577D01*
X666429Y9982911D01*
X676843Y9987991D01*
X687257Y9987991D01*
X697671Y9982911D01*
X702751Y9977577D01*
X707831Y9962083D01*
X707831Y9915347D01*
X707831Y9951669D02*
G01*
X764981Y9987991D01*
X676843Y10022281D02*
G01*
X671509Y10032695D01*
X656015Y10048443D01*
X764981Y10048443D01*
X671509Y10144963D02*
G01*
X661095Y10139883D01*
X656015Y10124135D01*
X656015Y10113721D01*
X661095Y10098227D01*
X676843Y10087813D01*
X702751Y10082733D01*
X728659Y10082733D01*
X749487Y10087813D01*
X759901Y10098227D01*
X764981Y10113721D01*
X764981Y10119055D01*
X759901Y10134549D01*
X749487Y10144963D01*
X733993Y10150297D01*
X728659Y10150297D01*
X713165Y10144963D01*
X702751Y10134549D01*
X697671Y10119055D01*
X697671Y10113721D01*
X702751Y10098227D01*
X713165Y10087813D01*
X728659Y10082733D01*
D12*
X2372039Y7740599D02*
G01*
X2410901Y7740599D01*
X2410901Y7740599D02*
G01*
X2410901Y7762697D01*
X2372039Y7774889D02*
G01*
X2410901Y7774889D01*
X2372039Y7774889D02*
G01*
X2372039Y7787843D01*
X2374071Y7793431D01*
X2377627Y7796987D01*
X2381437Y7799019D01*
X2386771Y7800797D01*
X2396169Y7800797D01*
X2401757Y7799019D01*
X2405313Y7796987D01*
X2409123Y7793431D01*
X2410901Y7787843D01*
X2410901Y7774889D01*
X2372039Y7824165D02*
G01*
X2374071Y7820355D01*
X2377627Y7816545D01*
X2381437Y7814767D01*
X2386771Y7812989D01*
X2396169Y7812989D01*
X2401757Y7814767D01*
X2405313Y7816545D01*
X2409123Y7820355D01*
X2410901Y7824165D01*
X2410901Y7831531D01*
X2409123Y7835087D01*
X2405313Y7838897D01*
X2401757Y7840675D01*
X2396169Y7842453D01*
X2386771Y7842453D01*
X2381437Y7840675D01*
X2377627Y7838897D01*
X2374071Y7835087D01*
X2372039Y7831531D01*
X2372039Y7824165D01*
X1372041Y7755331D02*
G01*
X1410903Y7740599D01*
X1372041Y7755331D02*
G01*
X1410903Y7770063D01*
X1397949Y7746187D02*
G01*
X1397949Y7764475D01*
X1372041Y7782255D02*
G01*
X1410903Y7782255D01*
X1372041Y7782255D02*
G01*
X1410903Y7808163D01*
X1372041Y7808163D02*
G01*
X1410903Y7808163D01*
X1372041Y7833309D02*
G01*
X1410903Y7833309D01*
X1372041Y7820355D02*
G01*
X1372041Y7846263D01*
X1379407Y7858455D02*
G01*
X1377629Y7862011D01*
X1372041Y7867599D01*
X1410903Y7867599D01*
X1072067Y8005267D02*
G01*
X1110929Y7990535D01*
X1072067Y8005267D02*
G01*
X1110929Y8019999D01*
X1097975Y7996123D02*
G01*
X1097975Y8014665D01*
X1072067Y8032191D02*
G01*
X1110929Y8032191D01*
X1072067Y8032191D02*
G01*
X1110929Y8058099D01*
X1072067Y8058099D02*
G01*
X1110929Y8058099D01*
X1072067Y8083245D02*
G01*
X1110929Y8083245D01*
X1072067Y8070291D02*
G01*
X1072067Y8096199D01*
X1081465Y8110169D02*
G01*
X1079433Y8110169D01*
X1075877Y8112201D01*
X1073845Y8113979D01*
X1072067Y8117535D01*
X1072067Y8124901D01*
X1073845Y8128711D01*
X1075877Y8130489D01*
X1079433Y8132521D01*
X1083243Y8132521D01*
X1086799Y8130489D01*
X1092387Y8126933D01*
X1110929Y8108391D01*
X1110929Y8134299D01*
D13*
X1309811Y8094675D02*
G01*
X1430969Y8094675D01*
X1309811Y8175447D02*
G01*
X1430969Y8175447D01*
X1367469Y8094675D02*
G01*
X1367469Y8175447D01*
X1338513Y8300161D02*
G01*
X1327083Y8294319D01*
X1315653Y8282635D01*
X1309811Y8271205D01*
X1309811Y8248091D01*
X1315653Y8236661D01*
X1327083Y8224977D01*
X1338513Y8219135D01*
X1356039Y8213547D01*
X1384741Y8213547D01*
X1402013Y8219135D01*
X1413697Y8224977D01*
X1425127Y8236661D01*
X1430969Y8248091D01*
X1430969Y8271205D01*
X1425127Y8282635D01*
X1413697Y8294319D01*
X1402013Y8300161D01*
X1332925Y8338261D02*
G01*
X1327083Y8349691D01*
X1309811Y8366963D01*
X1430969Y8366963D01*
X1338513Y8410905D02*
G01*
X1332925Y8410905D01*
X1321241Y8416747D01*
X1315653Y8422335D01*
X1309811Y8434019D01*
X1309811Y8457133D01*
X1315653Y8468563D01*
X1321241Y8474405D01*
X1332925Y8480247D01*
X1344355Y8480247D01*
X1356039Y8474405D01*
X1373311Y8462975D01*
X1430969Y8405063D01*
X1430969Y8485835D01*
X3406302Y7648930D02*
G01*
X3360328Y7770088D01*
X3314100Y7648930D02*
G01*
X3360328Y7770088D01*
X3189386Y7677632D02*
G01*
X3195228Y7666202D01*
X3206658Y7654772D01*
X3218342Y7648930D01*
X3241202Y7648930D01*
X3252886Y7654772D01*
X3264316Y7666202D01*
X3270158Y7677632D01*
X3276000Y7695158D01*
X3276000Y7723860D01*
X3270158Y7741132D01*
X3264316Y7752816D01*
X3252886Y7764246D01*
X3241202Y7770088D01*
X3218342Y7770088D01*
X3206658Y7764246D01*
X3195228Y7752816D01*
X3189386Y7741132D01*
X3064672Y7677632D02*
G01*
X3070514Y7666202D01*
X3081944Y7654772D01*
X3093628Y7648930D01*
X3116742Y7648930D01*
X3128172Y7654772D01*
X3139602Y7666202D01*
X3145444Y7677632D01*
X3151286Y7695158D01*
X3151286Y7723860D01*
X3145444Y7741132D01*
X3139602Y7752816D01*
X3128172Y7764246D01*
X3116742Y7770088D01*
X3093628Y7770088D01*
X3081944Y7764246D01*
X3070514Y7752816D01*
X3064672Y7741132D01*
X3319942Y7931632D02*
G01*
X3325530Y7920202D01*
X3337214Y7908772D01*
X3348644Y7902930D01*
X3371758Y7902930D01*
X3383442Y7908772D01*
X3394872Y7920202D01*
X3400714Y7931632D01*
X3406302Y7949158D01*
X3406302Y7977860D01*
X3400714Y7995132D01*
X3394872Y8006816D01*
X3383442Y8018246D01*
X3371758Y8024088D01*
X3348644Y8024088D01*
X3337214Y8018246D01*
X3325530Y8006816D01*
X3319942Y7995132D01*
X3319942Y7977860D01*
X3348644Y7977860D02*
G01*
X3319942Y7977860D01*
X3281842Y7902930D02*
G01*
X3281842Y8024088D01*
X3281842Y7902930D02*
G01*
X3200816Y8024088D01*
X3200816Y7902930D02*
G01*
X3200816Y8024088D01*
X3162716Y7902930D02*
G01*
X3162716Y8024088D01*
X3162716Y7902930D02*
G01*
X3122330Y7902930D01*
X3105058Y7908772D01*
X3093628Y7920202D01*
X3087786Y7931632D01*
X3081944Y7949158D01*
X3081944Y7977860D01*
X3087786Y7995132D01*
X3093628Y8006816D01*
X3105058Y8018246D01*
X3122330Y8024088D01*
X3162716Y8024088D01*
X3406302Y8156930D02*
G01*
X3406302Y8278088D01*
X3406302Y8156930D02*
G01*
X3354486Y8156930D01*
X3337214Y8162772D01*
X3331372Y8168360D01*
X3325530Y8180044D01*
X3325530Y8191474D01*
X3331372Y8203158D01*
X3337214Y8208746D01*
X3354486Y8214588D01*
X3406302Y8214588D01*
X3365916Y8214588D02*
G01*
X3325530Y8278088D01*
X3287430Y8156930D02*
G01*
X3206658Y8278088D01*
X3206658Y8156930D02*
G01*
X3287430Y8278088D01*
X3365916Y8410930D02*
G01*
X3365916Y8532088D01*
X3406302Y8410930D02*
G01*
X3325530Y8410930D01*
X3287430Y8410930D02*
G01*
X3206658Y8532088D01*
X3206658Y8410930D02*
G01*
X3287430Y8532088D01*
X3325530Y8682202D02*
G01*
X3337214Y8670772D01*
X3354486Y8664930D01*
X3377600Y8664930D01*
X3394872Y8670772D01*
X3406302Y8682202D01*
X3406302Y8693632D01*
X3400714Y8705316D01*
X3394872Y8711158D01*
X3383442Y8716746D01*
X3348644Y8728430D01*
X3337214Y8734272D01*
X3331372Y8739860D01*
X3325530Y8751544D01*
X3325530Y8768816D01*
X3337214Y8780246D01*
X3354486Y8786088D01*
X3377600Y8786088D01*
X3394872Y8780246D01*
X3406302Y8768816D01*
X3287430Y8664930D02*
G01*
X3287430Y8786088D01*
X3287430Y8664930D02*
G01*
X3212500Y8664930D01*
X3287430Y8722588D02*
G01*
X3241202Y8722588D01*
X3287430Y8786088D02*
G01*
X3212500Y8786088D01*
X3134014Y8664930D02*
G01*
X3134014Y8786088D01*
X3174400Y8664930D02*
G01*
X3093628Y8664930D01*
D14*
X9847257Y3679647D02*
G01*
X9750229Y3679647D01*
X9847257Y3679647D02*
G01*
X9847257Y3637991D01*
X9842685Y3624275D01*
X9838113Y3619703D01*
X9828715Y3614877D01*
X9814999Y3614877D01*
X9805855Y3619703D01*
X9801029Y3624275D01*
X9796457Y3637991D01*
X9796457Y3679647D01*
X9847257Y3584397D02*
G01*
X9750229Y3584397D01*
X9847257Y3584397D02*
G01*
X9847257Y3542995D01*
X9842685Y3529025D01*
X9838113Y3524453D01*
X9828715Y3519881D01*
X9814999Y3519881D01*
X9805855Y3524453D01*
X9801029Y3529025D01*
X9796457Y3542995D01*
X9796457Y3584397D01*
X9833541Y3424631D02*
G01*
X9842685Y3434029D01*
X9847257Y3447745D01*
X9847257Y3466287D01*
X9842685Y3480257D01*
X9833541Y3489401D01*
X9824143Y3489401D01*
X9814999Y3484829D01*
X9810427Y3480257D01*
X9805855Y3470859D01*
X9796457Y3443173D01*
X9791885Y3434029D01*
X9787313Y3429457D01*
X9777915Y3424631D01*
X9764199Y3424631D01*
X9755055Y3434029D01*
X9750229Y3447745D01*
X9750229Y3466287D01*
X9755055Y3480257D01*
X9764199Y3489401D01*
X9593257Y3679647D02*
G01*
X9496229Y3679647D01*
X9593257Y3679647D02*
G01*
X9593257Y3637991D01*
X9588685Y3624275D01*
X9584113Y3619703D01*
X9574715Y3614877D01*
X9565571Y3614877D01*
X9556427Y3619703D01*
X9551855Y3624275D01*
X9547029Y3637991D01*
X9547029Y3679647D01*
X9547029Y3647389D02*
G01*
X9496229Y3614877D01*
X9593257Y3584397D02*
G01*
X9496229Y3519881D01*
X9593257Y3519881D02*
G01*
X9496229Y3584397D01*
X9348403Y3647389D02*
G01*
X9251375Y3647389D01*
X9348403Y3679647D02*
G01*
X9348403Y3614877D01*
X9348403Y3584397D02*
G01*
X9251375Y3519881D01*
X9348403Y3519881D02*
G01*
X9251375Y3584397D01*
X9062143Y3661105D02*
G01*
X9071541Y3665677D01*
X9080685Y3675075D01*
X9085257Y3684219D01*
X9085257Y3702761D01*
X9080685Y3711905D01*
X9071541Y3721303D01*
X9062143Y3725875D01*
X9048427Y3730447D01*
X9025313Y3730447D01*
X9011343Y3725875D01*
X9002199Y3721303D01*
X8993055Y3711905D01*
X8988229Y3702761D01*
X8988229Y3684219D01*
X8993055Y3675075D01*
X9002199Y3665677D01*
X9011343Y3661105D01*
X9025313Y3661105D01*
X9025313Y3684219D02*
G01*
X9025313Y3661105D01*
X9085257Y3630625D02*
G01*
X8988229Y3630625D01*
X9085257Y3630625D02*
G01*
X8988229Y3566109D01*
X9085257Y3566109D02*
G01*
X8988229Y3566109D01*
X9085257Y3535629D02*
G01*
X8988229Y3535629D01*
X9085257Y3535629D02*
G01*
X9085257Y3503117D01*
X9080685Y3489401D01*
X9071541Y3480257D01*
X9062143Y3475431D01*
X9048427Y3470859D01*
X9025313Y3470859D01*
X9011343Y3475431D01*
X9002199Y3480257D01*
X8993055Y3489401D01*
X8988229Y3503117D01*
X8988229Y3535629D01*
X8831257Y3730447D02*
G01*
X8734229Y3693617D01*
X8831257Y3656533D02*
G01*
X8734229Y3693617D01*
X8808143Y3556711D02*
G01*
X8817541Y3561537D01*
X8826685Y3570681D01*
X8831257Y3579825D01*
X8831257Y3598367D01*
X8826685Y3607511D01*
X8817541Y3616909D01*
X8808143Y3621481D01*
X8794427Y3626053D01*
X8771313Y3626053D01*
X8757343Y3621481D01*
X8748199Y3616909D01*
X8739055Y3607511D01*
X8734229Y3598367D01*
X8734229Y3579825D01*
X8739055Y3570681D01*
X8748199Y3561537D01*
X8757343Y3556711D01*
X8808143Y3457143D02*
G01*
X8817541Y3461715D01*
X8826685Y3470859D01*
X8831257Y3480257D01*
X8831257Y3498545D01*
X8826685Y3507943D01*
X8817541Y3517087D01*
X8808143Y3521659D01*
X8794427Y3526231D01*
X8771313Y3526231D01*
X8757343Y3521659D01*
X8748199Y3517087D01*
X8739055Y3507943D01*
X8734229Y3498545D01*
X8734229Y3480257D01*
X8739055Y3470859D01*
X8748199Y3461715D01*
X8757343Y3457143D01*
X2976559Y6410147D02*
G01*
X3073587Y6446977D01*
X2976559Y6484061D02*
G01*
X3073587Y6446977D01*
X2976559Y6514541D02*
G01*
X3073587Y6514541D01*
X2976559Y6545021D02*
G01*
X3073587Y6545021D01*
X2976559Y6545021D02*
G01*
X3073587Y6609537D01*
X2976559Y6609537D02*
G01*
X3073587Y6609537D01*
X2745673Y6479489D02*
G01*
X2736275Y6474917D01*
X2727131Y6465519D01*
X2722559Y6456375D01*
X2722559Y6437833D01*
X2727131Y6428689D01*
X2736275Y6419291D01*
X2745673Y6414719D01*
X2759389Y6410147D01*
X2782503Y6410147D01*
X2796473Y6414719D01*
X2805617Y6419291D01*
X2814761Y6428689D01*
X2819587Y6437833D01*
X2819587Y6456375D01*
X2814761Y6465519D01*
X2805617Y6474917D01*
X2796473Y6479489D01*
X2782503Y6479489D01*
X2782503Y6456375D02*
G01*
X2782503Y6479489D01*
X2722559Y6509969D02*
G01*
X2819587Y6509969D01*
X2722559Y6509969D02*
G01*
X2819587Y6574485D01*
X2722559Y6574485D02*
G01*
X2819587Y6574485D01*
X2722559Y6604965D02*
G01*
X2819587Y6604965D01*
X2722559Y6604965D02*
G01*
X2722559Y6637477D01*
X2727131Y6651193D01*
X2736275Y6660337D01*
X2745673Y6665163D01*
X2759389Y6669735D01*
X2782503Y6669735D01*
X2796473Y6665163D01*
X2805617Y6660337D01*
X2814761Y6651193D01*
X2819587Y6637477D01*
X2819587Y6604965D01*
X2482275Y6474917D02*
G01*
X2473131Y6465519D01*
X2468559Y6451803D01*
X2468559Y6433261D01*
X2473131Y6419291D01*
X2482275Y6410147D01*
X2491673Y6410147D01*
X2500817Y6414719D01*
X2505389Y6419291D01*
X2509961Y6428689D01*
X2519359Y6456375D01*
X2523931Y6465519D01*
X2528503Y6470091D01*
X2537901Y6474917D01*
X2551617Y6474917D01*
X2560761Y6465519D01*
X2565587Y6451803D01*
X2565587Y6433261D01*
X2560761Y6419291D01*
X2551617Y6410147D01*
X2491673Y6574485D02*
G01*
X2482275Y6569913D01*
X2473131Y6560769D01*
X2468559Y6551371D01*
X2468559Y6533083D01*
X2473131Y6523685D01*
X2482275Y6514541D01*
X2491673Y6509969D01*
X2505389Y6505397D01*
X2528503Y6505397D01*
X2542473Y6509969D01*
X2551617Y6514541D01*
X2560761Y6523685D01*
X2565587Y6533083D01*
X2565587Y6551371D01*
X2560761Y6560769D01*
X2551617Y6569913D01*
X2542473Y6574485D01*
X2468559Y6604965D02*
G01*
X2565587Y6604965D01*
X2565587Y6604965D02*
G01*
X2565587Y6660337D01*
X2228275Y6474917D02*
G01*
X2219131Y6465519D01*
X2214559Y6451803D01*
X2214559Y6433261D01*
X2219131Y6419291D01*
X2228275Y6410147D01*
X2237673Y6410147D01*
X2246817Y6414719D01*
X2251389Y6419291D01*
X2255961Y6428689D01*
X2265359Y6456375D01*
X2269931Y6465519D01*
X2274503Y6470091D01*
X2283901Y6474917D01*
X2297617Y6474917D01*
X2306761Y6465519D01*
X2311587Y6451803D01*
X2311587Y6433261D01*
X2306761Y6419291D01*
X2297617Y6410147D01*
X2214559Y6505397D02*
G01*
X2311587Y6505397D01*
X2214559Y6505397D02*
G01*
X2214559Y6537655D01*
X2219131Y6551371D01*
X2228275Y6560769D01*
X2237673Y6565341D01*
X2251389Y6569913D01*
X2274503Y6569913D01*
X2288473Y6565341D01*
X2297617Y6560769D01*
X2306761Y6551371D01*
X2311587Y6537655D01*
X2311587Y6505397D01*
X2214559Y6637477D02*
G01*
X2311587Y6600393D01*
X2214559Y6637477D02*
G01*
X2311587Y6674307D01*
X2279075Y6614363D02*
G01*
X2279075Y6660337D01*
D11*
X173415Y9928047D02*
G01*
X282381Y9928047D01*
X173415Y10000691D02*
G01*
X282381Y10000691D01*
X225231Y9928047D02*
G01*
X225231Y10000691D01*
X199323Y10040315D02*
G01*
X194243Y10040315D01*
X183829Y10045395D01*
X178495Y10050729D01*
X173415Y10061143D01*
X173415Y10081717D01*
X178495Y10092131D01*
X183829Y10097465D01*
X194243Y10102545D01*
X204657Y10102545D01*
X215071Y10097465D01*
X230565Y10087051D01*
X282381Y10034981D01*
X282381Y10107879D01*
D10*
X326069Y8670747D02*
G01*
X230565Y8670747D01*
X326069Y8606993D02*
G01*
X230565Y8606993D01*
X280603Y8670747D02*
G01*
X280603Y8606993D01*
X308035Y8577021D02*
G01*
X312607Y8568131D01*
X326069Y8554415D01*
X230565Y8554415D01*
G36*
X6806895Y9179458D02*
G01*
X6806895Y9142425D01*
X6837375Y9142425D01*
X6837375Y9179458D01*
G37*
G36*
X6806895Y9342932D02*
G01*
X6806895Y9305899D01*
X6837375Y9305899D01*
X6837375Y9342932D01*
G37*
G36*
X6775958Y9473793D02*
G01*
X6753098Y9445853D01*
X6775958Y9417913D01*
G37*
G36*
X6730238Y9473793D02*
G01*
X6730238Y9417913D01*
X6753098Y9445853D01*
G37*
G36*
X7131558Y9671913D02*
G01*
X7159498Y9649053D01*
X7187438Y9671913D01*
G37*
G36*
X7159498Y9649053D02*
G01*
X7131558Y9626193D01*
X7187438Y9626193D01*
G37*
G36*
X6991858Y9671913D02*
G01*
X7019798Y9649053D01*
X7047738Y9671913D01*
G37*
G36*
X7019798Y9649053D02*
G01*
X6991858Y9626193D01*
X7047738Y9626193D01*
G37*
D11*
X774141Y9747067D02*
G01*
X774141Y9875560D01*
X590722Y9875560D01*
X590722Y9747067D01*
X774141Y9651827D02*
G01*
X774141Y9523333D01*
X590722Y9523333D01*
X590722Y9651827D01*
X938992Y9957968D02*
G01*
X938992Y10053855D01*
X806871Y10053855D01*
X806871Y9957968D01*
X938992Y9872726D02*
G01*
X938992Y9776838D01*
X806871Y9776838D01*
X806871Y9872726D01*
D15*
X3660429Y9060535D02*
G01*
X3660429Y7636560D01*
X866429Y7636560D01*
X866429Y9060535D01*
X3660429Y9060535D01*
X2390429Y8348548D02*
G01*
X2390429Y8856548D01*
X3025429Y8856548D01*
X3025429Y8348548D01*
X2390429Y8348548D01*
X1755429Y8094548D02*
G01*
X1755429Y8602548D01*
X2263429Y8602548D01*
X2263429Y8094548D01*
X1755429Y8094548D01*
X1733433Y8740546D02*
G01*
X1733433Y8940545D01*
X2033432Y8940545D01*
X2033432Y8740546D01*
X1733433Y8740546D01*
X2483444Y7740548D02*
G01*
X2483444Y7890560D01*
X2733431Y7890560D01*
X2733431Y7740548D01*
X2483444Y7740548D01*
D17*
X3268050Y9836955D02*
G01*
X3268050Y9756957D01*
X3268096Y9893000D02*
G01*
X3268096Y9972997D01*
X3126082Y9836955D02*
G01*
X3126082Y9756957D01*
X3126130Y9893000D02*
G01*
X3126130Y9972997D01*
X3237067Y9725982D02*
G01*
X3157062Y9725982D01*
X3157115Y10003975D02*
G01*
X3237118Y10003975D01*
X3187011Y9681931D02*
G01*
X3267008Y9681931D01*
X3130966Y9681977D02*
G01*
X3050969Y9681977D01*
X3187011Y9539963D02*
G01*
X3267008Y9539963D01*
X3130966Y9540011D02*
G01*
X3050969Y9540011D01*
X3297984Y9650948D02*
G01*
X3297984Y9570943D01*
X3019991Y9570996D02*
G01*
X3019991Y9650999D01*
X7428811Y9300931D02*
G01*
X7508808Y9300931D01*
X7372766Y9300977D02*
G01*
X7292769Y9300977D01*
X7428811Y9158963D02*
G01*
X7508808Y9158963D01*
X7372766Y9159011D02*
G01*
X7292769Y9159011D01*
X7539784Y9269948D02*
G01*
X7539784Y9189943D01*
X7261791Y9189996D02*
G01*
X7261791Y9269999D01*
X6831850Y8500404D02*
G01*
X6911847Y8500404D01*
X6775805Y8500450D02*
G01*
X6695808Y8500450D01*
X6831850Y8358436D02*
G01*
X6911847Y8358436D01*
X6775805Y8358484D02*
G01*
X6695808Y8358484D01*
X6942823Y8469421D02*
G01*
X6942823Y8389416D01*
X6664830Y8389470D02*
G01*
X6664830Y8469472D01*
X3661750Y9938555D02*
G01*
X3661750Y9858557D01*
X3661796Y9994600D02*
G01*
X3661796Y10074597D01*
X3519782Y9938555D02*
G01*
X3519782Y9858557D01*
X3519830Y9994600D02*
G01*
X3519830Y10074597D01*
X3630767Y9827582D02*
G01*
X3550762Y9827582D01*
X3550815Y10105575D02*
G01*
X3630818Y10105575D01*
X6390035Y9524692D02*
G01*
X6390035Y9604689D01*
X6389989Y9468647D02*
G01*
X6389989Y9388650D01*
X6532003Y9524692D02*
G01*
X6532003Y9604689D01*
X6531955Y9468647D02*
G01*
X6531955Y9388650D01*
X6421018Y9635665D02*
G01*
X6501023Y9635665D01*
X6500969Y9357672D02*
G01*
X6420967Y9357672D01*
X7545674Y7784365D02*
G01*
X7545674Y7864363D01*
X7545628Y7728320D02*
G01*
X7545628Y7648323D01*
X7687642Y7784365D02*
G01*
X7687642Y7864363D01*
X7687594Y7728320D02*
G01*
X7687594Y7648323D01*
X7576657Y7895338D02*
G01*
X7656662Y7895338D01*
X7656609Y7617345D02*
G01*
X7576606Y7617345D01*
X5970874Y7581165D02*
G01*
X5970874Y7661163D01*
X5970828Y7525120D02*
G01*
X5970828Y7445123D01*
X6112842Y7581165D02*
G01*
X6112842Y7661163D01*
X6112794Y7525120D02*
G01*
X6112794Y7445123D01*
X6001857Y7692138D02*
G01*
X6081862Y7692138D01*
X6081809Y7414145D02*
G01*
X6001806Y7414145D01*
D11*
X7440292Y7587927D02*
G01*
X7440292Y7728927D01*
X7259571Y7728927D02*
G01*
X7259571Y7587927D01*
X7274811Y7572687D02*
G01*
X7425052Y7572687D01*
X7440292Y7950166D02*
G01*
X7440292Y7809166D01*
X7259571Y7809166D02*
G01*
X7259571Y7950166D01*
X7274811Y7965406D02*
G01*
X7425052Y7965406D01*
X6348092Y7397427D02*
G01*
X6348092Y7538427D01*
X6167371Y7538427D02*
G01*
X6167371Y7397427D01*
X6182611Y7382187D02*
G01*
X6332852Y7382187D01*
X6348092Y7759666D02*
G01*
X6348092Y7618666D01*
X6167371Y7618666D02*
G01*
X6167371Y7759666D01*
X6182611Y7774906D02*
G01*
X6332852Y7774906D01*
X6814512Y9150052D02*
G01*
X6539273Y9150052D01*
X6539273Y9150052D02*
G01*
X6539273Y9174353D01*
X6814512Y9335295D02*
G01*
X6539273Y9335295D01*
X6539273Y9335295D02*
G01*
X6539273Y9310994D01*
X6773572Y9150052D02*
G01*
X6773572Y9335295D01*
D18*
X6688091Y9495873D02*
G01*
X6818094Y9495873D01*
X6688091Y9395874D02*
G01*
X6818094Y9395874D01*
D19*
X6753092Y9468733D02*
G01*
X6753092Y9420473D01*
D18*
X7109493Y9584072D02*
G01*
X7109493Y9714075D01*
X7209492Y9584072D02*
G01*
X7209492Y9714075D01*
D19*
X7136632Y9649073D02*
G01*
X7184892Y9649073D01*
D18*
X6969793Y9584072D02*
G01*
X6969793Y9714075D01*
X7069792Y9584072D02*
G01*
X7069792Y9714075D01*
D19*
X6996932Y9649073D02*
G01*
X7045192Y9649073D01*
D17*
X420832Y5852347D02*
G01*
X170832Y5852347D01*
X170832Y6612346D01*
X420832Y6612346D01*
X420832Y5852347D01*
X140832Y6015530D02*
G01*
X-418797Y6015530D01*
X140832Y5929439D02*
G01*
X-421065Y5929439D01*
X140832Y6015530D02*
G01*
X-418797Y6015530D01*
X-459165Y5975159D01*
X140832Y5929439D02*
G01*
X-421065Y5929439D01*
X-459165Y5967539D01*
X140832Y6269436D02*
G01*
X-418797Y6269436D01*
X-459165Y6229065D01*
X140832Y6183345D02*
G01*
X-421065Y6183345D01*
X-459165Y6221445D01*
X140832Y6529438D02*
G01*
X-418797Y6529438D01*
X140832Y6443347D02*
G01*
X-421065Y6443347D01*
X140832Y6529438D02*
G01*
X-418797Y6529438D01*
X-459165Y6489070D01*
X140832Y6443347D02*
G01*
X-421065Y6443347D01*
X-459165Y6481447D01*
X9732431Y6739346D02*
G01*
X9982431Y6739346D01*
X9982431Y5979347D01*
X9732431Y5979347D01*
X9732431Y6739346D01*
X10012431Y6576164D02*
G01*
X10572061Y6576164D01*
X10012431Y6662254D02*
G01*
X10574329Y6662254D01*
X10012431Y6576164D02*
G01*
X10572061Y6576164D01*
X10612429Y6616534D01*
X10012431Y6662254D02*
G01*
X10574329Y6662254D01*
X10612429Y6624154D01*
X10012431Y6322258D02*
G01*
X10572061Y6322258D01*
X10612429Y6362628D01*
X10012431Y6408348D02*
G01*
X10574329Y6408348D01*
X10612429Y6370248D01*
X10012431Y6062256D02*
G01*
X10572061Y6062256D01*
X10012431Y6148346D02*
G01*
X10574329Y6148346D01*
X10012431Y6062256D02*
G01*
X10572061Y6062256D01*
X10612429Y6102624D01*
X10012431Y6148346D02*
G01*
X10574329Y6148346D01*
X10612429Y6110246D01*
X1202131Y2567147D02*
G01*
X1202131Y2317148D01*
X442132Y2317148D01*
X442132Y2567147D01*
X1202131Y2567147D01*
X1038948Y2287148D02*
G01*
X1038948Y1727517D01*
X1125039Y2287148D02*
G01*
X1125039Y1725249D01*
X1038948Y2287148D02*
G01*
X1038948Y1727517D01*
X1079319Y1687149D01*
X1125039Y2287148D02*
G01*
X1125039Y1725249D01*
X1086939Y1687149D01*
X785042Y2287148D02*
G01*
X785042Y1727517D01*
X825413Y1687149D01*
X871133Y2287148D02*
G01*
X871133Y1725249D01*
X833033Y1687149D01*
X525040Y2287148D02*
G01*
X525040Y1727517D01*
X611131Y2287148D02*
G01*
X611131Y1725249D01*
X525040Y2287148D02*
G01*
X525040Y1727517D01*
X565409Y1687149D01*
X611131Y2287148D02*
G01*
X611131Y1725249D01*
X573031Y1687149D01*
X2053031Y2567147D02*
G01*
X2053031Y2317148D01*
X1293032Y2317148D01*
X1293032Y2567147D01*
X2053031Y2567147D01*
X1889848Y2287148D02*
G01*
X1889848Y1727517D01*
X1975939Y2287148D02*
G01*
X1975939Y1725249D01*
X1889848Y2287148D02*
G01*
X1889848Y1727517D01*
X1930219Y1687149D01*
X1975939Y2287148D02*
G01*
X1975939Y1725249D01*
X1937839Y1687149D01*
X1635942Y2287148D02*
G01*
X1635942Y1727517D01*
X1676313Y1687149D01*
X1722033Y2287148D02*
G01*
X1722033Y1725249D01*
X1683933Y1687149D01*
X1375940Y2287148D02*
G01*
X1375940Y1727517D01*
X1462031Y2287148D02*
G01*
X1462031Y1725249D01*
X1375940Y2287148D02*
G01*
X1375940Y1727517D01*
X1416309Y1687149D01*
X1462031Y2287148D02*
G01*
X1462031Y1725249D01*
X1423931Y1687149D01*
X1723831Y10294345D02*
G01*
X1723831Y10044346D01*
X2231730Y10294345D02*
G01*
X2231730Y10044346D01*
X1469831Y10294345D02*
G01*
X2231730Y10294345D01*
X1469831Y10044346D02*
G01*
X1469831Y10294345D01*
X2231831Y10044346D02*
G01*
X1469831Y10044346D01*
D20*
X3400231Y7248347D02*
G01*
X3400231Y5724347D01*
X5940231Y5724347D01*
X5940231Y7248347D01*
X3400231Y7248347D01*
D11*
X8407610Y8226026D02*
G01*
X8552853Y8226026D01*
X8552853Y8329188D01*
X8407610Y8531268D02*
G01*
X8552853Y8531268D01*
X8552853Y8428106D01*
X8407610Y8333107D02*
G01*
X8407610Y8424186D01*
X8420310Y8975326D02*
G01*
X8565553Y8975326D01*
X8565553Y9078488D01*
X8420310Y9280568D02*
G01*
X8565553Y9280568D01*
X8565553Y9177406D01*
X8420310Y9082407D02*
G01*
X8420310Y9173486D01*
X3263153Y10212395D02*
G01*
X3263153Y10308282D01*
X3131032Y10308282D01*
X3131032Y10212395D01*
X3263153Y10127152D02*
G01*
X3263153Y10031265D01*
X3131032Y10031265D01*
X3131032Y10127152D01*
X7193010Y8368507D02*
G01*
X7097123Y8368507D01*
X7097123Y8236386D01*
X7193010Y8236386D01*
X7278253Y8368507D02*
G01*
X7374140Y8368507D01*
X7374140Y8236386D01*
X7278253Y8236386D01*
X7938653Y8655486D02*
G01*
X8034540Y8655486D01*
X8034540Y8787607D01*
X7938653Y8787607D01*
X7853410Y8655486D02*
G01*
X7757523Y8655486D01*
X7757523Y8787607D01*
X7853410Y8787607D01*
X3481014Y10179913D02*
G01*
X3576901Y10179913D01*
X3576901Y10312034D01*
X3481014Y10312034D01*
X3395771Y10179913D02*
G01*
X3299884Y10179913D01*
X3299884Y10312034D01*
X3395771Y10312034D01*
X8355792Y8789568D02*
G01*
X8355792Y8885455D01*
X8223671Y8885455D01*
X8223671Y8789568D01*
X8355792Y8704326D02*
G01*
X8355792Y8608438D01*
X8223671Y8608438D01*
X8223671Y8704326D01*
X8426871Y8704326D02*
G01*
X8426871Y8608438D01*
X8558992Y8608438D01*
X8558992Y8704326D01*
X8426871Y8789568D02*
G01*
X8426871Y8885455D01*
X8558992Y8885455D01*
X8558992Y8789568D01*
X8642771Y8069326D02*
G01*
X8642771Y7973438D01*
X8774892Y7973438D01*
X8774892Y8069326D01*
X8642771Y8154568D02*
G01*
X8642771Y8250455D01*
X8774892Y8250455D01*
X8774892Y8154568D01*
X8673292Y9538868D02*
G01*
X8673292Y9634755D01*
X8541171Y9634755D01*
X8541171Y9538868D01*
X8673292Y9453626D02*
G01*
X8673292Y9357738D01*
X8541171Y9357738D01*
X8541171Y9453626D01*
X6801332Y8907952D02*
G01*
X6801332Y8812065D01*
X6933453Y8812065D01*
X6933453Y8907952D01*
X6801332Y8993195D02*
G01*
X6801332Y9089082D01*
X6933453Y9089082D01*
X6933453Y8993195D01*
X7008032Y9062095D02*
G01*
X7008032Y9133898D01*
X7107753Y9133898D01*
X7107753Y9062095D01*
X7008032Y9016852D02*
G01*
X7008032Y8945049D01*
X7107753Y8945049D01*
X7107753Y9016852D01*
X6839214Y8644834D02*
G01*
X6911017Y8644834D01*
X6911017Y8545113D01*
X6839214Y8545113D01*
X6793971Y8644834D02*
G01*
X6722168Y8644834D01*
X6722168Y8545113D01*
X6793971Y8545113D01*
X6724914Y9711634D02*
G01*
X6796717Y9711634D01*
X6796717Y9611913D01*
X6724914Y9611913D01*
X6679671Y9711634D02*
G01*
X6607868Y9711634D01*
X6607868Y9611913D01*
X6679671Y9611913D01*
X7416271Y9586513D02*
G01*
X7344468Y9586513D01*
X7344468Y9686234D01*
X7416271Y9686234D01*
X7461514Y9586513D02*
G01*
X7533317Y9586513D01*
X7533317Y9686234D01*
X7461514Y9686234D01*
D21*
X2649212Y9839726D02*
G01*
X2692318Y9839726D01*
X2957451Y9839726D02*
G01*
X2914345Y9839726D01*
X2914345Y10244968D02*
G01*
X2957451Y10244968D01*
X2649212Y10244968D02*
G01*
X2692318Y10244968D01*
D11*
X2649212Y10244968D02*
G01*
X2649212Y9839726D01*
X2957451Y10244968D02*
G01*
X2957451Y9839726D01*
D21*
X6602351Y8784468D02*
G01*
X6559245Y8784468D01*
X6294112Y8784468D02*
G01*
X6337218Y8784468D01*
X6337218Y8379226D02*
G01*
X6294112Y8379226D01*
X6602351Y8379226D02*
G01*
X6559245Y8379226D01*
D11*
X6602351Y8379226D02*
G01*
X6602351Y8784468D01*
X6294112Y8379226D02*
G01*
X6294112Y8784468D01*
D17*
X5838631Y10403057D02*
G01*
X5838631Y10480941D01*
X4036931Y10480941D02*
G01*
X4036931Y10403057D01*
X4036931Y10480982D02*
G01*
X5838631Y10480941D01*
X5703547Y8531042D02*
G01*
X5838631Y8531042D01*
X5838631Y8615827D01*
X4036931Y8615827D02*
G01*
X4036931Y8531042D01*
X4170316Y8531042D01*
X9953431Y4086047D02*
G01*
X9953431Y2460447D01*
X8734231Y2460447D01*
X8632631Y2460447D01*
X8632631Y2562047D01*
X8632631Y3882847D01*
X8632631Y3882847D02*
G01*
X8632631Y4086047D01*
X9953431Y4086047D01*
X2142931Y6829247D02*
G01*
X2396931Y6829247D01*
X2396931Y6829247D02*
G01*
X3158931Y6829247D01*
X2904931Y6829247D02*
G01*
X2904931Y7083247D01*
X2396931Y6829247D02*
G01*
X2396931Y7083247D01*
X2650931Y6829247D02*
G01*
X2650931Y7083247D01*
X2142931Y5775147D02*
G01*
X2142931Y7095947D01*
X3158931Y7095947D01*
X3158931Y5775147D01*
X2142931Y5775147D01*
D11*
X7683812Y8538923D02*
G01*
X7683812Y8464354D01*
X7609243Y8464354D01*
X7168573Y8538923D02*
G01*
X7168573Y8464354D01*
X7243142Y8464354D01*
X7683812Y8905024D02*
G01*
X7683812Y8979593D01*
X7609243Y8979593D01*
X7168573Y8905024D02*
G01*
X7168573Y8979593D01*
X7243142Y8979593D01*
X7131253Y7197608D02*
G01*
X6451010Y7197608D01*
X6451010Y7476886D01*
X7131253Y7476886D01*
X7131253Y7197608D01*
D17*
X6638785Y10360268D02*
G01*
X6638785Y10160873D01*
X6638785Y10703171D02*
G01*
X6638785Y10555874D01*
X7545984Y10359956D02*
G01*
X7545984Y10161183D01*
X7545984Y10718071D02*
G01*
X7545984Y10556186D01*
X6645986Y10718071D02*
G01*
X7545984Y10718071D01*
X316133Y9826447D02*
G01*
X566132Y9826447D01*
X316133Y10334345D02*
G01*
X566132Y10334345D01*
X316133Y9572447D02*
G01*
X316133Y10334345D01*
X566132Y9572447D02*
G01*
X316133Y9572447D01*
X566132Y10334447D02*
G01*
X566132Y9572447D01*
X604230Y8746947D02*
G01*
X354230Y8746947D01*
X604230Y8239048D02*
G01*
X354230Y8239048D01*
X604230Y9000947D02*
G01*
X604230Y8239048D01*
X354230Y9000947D02*
G01*
X604230Y9000947D01*
X354230Y8238947D02*
G01*
X354230Y9000947D01*
D15*
G75*
G01*
X1220429Y7917536D02*
G03*
X1231732Y7917053I240J-127000D01*
G75*
G01*
X983447Y8011262D02*
G03*
X995970Y8010144I0J-70714D01*
D17*
G75*
G01*
X3126130Y9972992D02*
G02*
X3157116Y10003975I30983J1D01*
G75*
G01*
X3237113Y10003975D02*
G02*
X3268096Y9972992I0J-30982D01*
G75*
G01*
X3268050Y9756963D02*
G02*
X3237067Y9725983I-30983J2D01*
G75*
G01*
X3157070Y9725983D02*
G02*
X3126082Y9756963I-5J30982D01*
G75*
G01*
X3050974Y9540011D02*
G02*
X3019991Y9570997I0J30983D01*
G75*
G01*
X3019991Y9650994D02*
G02*
X3050974Y9681977I30983J0D01*
G75*
G01*
X3267004Y9681931D02*
G02*
X3297984Y9650948I-3J-30983D01*
G75*
G01*
X3297984Y9570951D02*
G02*
X3267004Y9539963I-30983J-5D01*
G75*
G01*
X7292774Y9159011D02*
G02*
X7261791Y9189997I0J30983D01*
G75*
G01*
X7261791Y9269994D02*
G02*
X7292774Y9300977I30983J0D01*
G75*
G01*
X7508804Y9300931D02*
G02*
X7539784Y9269948I-3J-30983D01*
G75*
G01*
X7539784Y9189951D02*
G02*
X7508804Y9158963I-30983J-5D01*
G75*
G01*
X6695813Y8358485D02*
G02*
X6664830Y8389470I0J30983D01*
G75*
G01*
X6664830Y8469467D02*
G02*
X6695813Y8500450I30983J0D01*
G75*
G01*
X6911843Y8500405D02*
G02*
X6942823Y8469422I-3J-30983D01*
G75*
G01*
X6942823Y8389424D02*
G02*
X6911843Y8358436I-30983J-5D01*
G75*
G01*
X3519830Y10074592D02*
G02*
X3550816Y10105575I30983J1D01*
G75*
G01*
X3630813Y10105575D02*
G02*
X3661796Y10074592I0J-30982D01*
G75*
G01*
X3661750Y9858563D02*
G02*
X3630767Y9827583I-30983J2D01*
G75*
G01*
X3550770Y9827583D02*
G02*
X3519782Y9858563I-5J30982D01*
G75*
G01*
X6531955Y9388655D02*
G02*
X6500970Y9357672I-30982J0D01*
G75*
G01*
X6420973Y9357672D02*
G02*
X6389990Y9388655I0J30983D01*
G75*
G01*
X6390035Y9604685D02*
G02*
X6421018Y9635665I30983J-3D01*
G75*
G01*
X6501016Y9635665D02*
G02*
X6532004Y9604685I5J-30983D01*
G75*
G01*
X7687594Y7648329D02*
G02*
X7656609Y7617346I-30982J0D01*
G75*
G01*
X7576612Y7617346D02*
G02*
X7545629Y7648329I0J30983D01*
G75*
G01*
X7545675Y7864358D02*
G02*
X7576657Y7895339I30982J-2D01*
G75*
G01*
X7656655Y7895339D02*
G02*
X7687643Y7864358I5J-30983D01*
G75*
G01*
X6112794Y7445129D02*
G02*
X6081809Y7414146I-30982J0D01*
G75*
G01*
X6001812Y7414146D02*
G02*
X5970829Y7445129I0J30983D01*
G75*
G01*
X5970875Y7661158D02*
G02*
X6001857Y7692139I30982J-2D01*
G75*
G01*
X6081855Y7692139D02*
G02*
X6112843Y7661158I5J-30983D01*
D11*
G75*
G01*
X7259571Y7587927D02*
G03*
X7274811Y7572687I15240J0D01*
G75*
G01*
X7425052Y7572687D02*
G03*
X7440292Y7587927I0J15240D01*
G75*
G01*
X7259571Y7950167D02*
G02*
X7274811Y7965407I15240J0D01*
G75*
G01*
X7425052Y7965407D02*
G02*
X7440292Y7950167I0J-15240D01*
G75*
G01*
X6167371Y7397427D02*
G03*
X6182611Y7382187I15240J0D01*
G75*
G01*
X6332852Y7382187D02*
G03*
X6348092Y7397427I0J15240D01*
G75*
G01*
X6167371Y7759667D02*
G02*
X6182611Y7774907I15240J0D01*
G75*
G01*
X6332852Y7774907D02*
G02*
X6348092Y7759667I0J-15240D01*
D17*
G75*
G01
X2893314Y10042347D02*
G03X2893314Y10042347I-89992J0D01*
G75*
G01
X6538214Y8581847D02*
G03X6538214Y8581847I-89992J0D01*
G75*
G01
X3969741Y10440873D02*
G03X3969741Y10440873I-18339J0D01*
G75*
G01
X3095422Y6029147D02*
G03X3095422Y6029147I-190500J0D01*
D22*
G75*
G01
X7583653Y9034983D02*
G03X7583653Y9034983I-7493J0D01*
M02*
