G04 Layer: TopLayer*
G04 EasyEDA v6.5.54, 2026-06-07 20:14:10*
G04 b9cd64c203934d81a84768f3e5580de7,e59cfd7f91104955829aa9c13f43603c,10*
G04 Gerber Generator version 0.2*
G04 Scale: 100 percent, Rotated: No, Reflected: No *
G04 Dimensions in millimeters *
G04 leading zeros omitted , absolute positions ,4 integer and 5 decimal *
%FSLAX45Y45*%
%MOMM*%

%AMMACRO1*21,1,$1,$2,0,0,$3*%
%ADD10C,0.2550*%
%ADD11C,0.2000*%
%ADD12C,0.2540*%
%ADD13MACRO1,1.377X1.1325X0.0000*%
%ADD14R,1.3770X1.1325*%
%ADD15R,0.0189X1.1325*%
%ADD16MACRO1,0.864X0.8065X0.0000*%
%ADD17R,0.8640X0.8065*%
%ADD18R,0.9000X0.8000*%
%ADD19R,0.8000X0.9000*%
%ADD20MACRO1,1.35X1.41X0.0000*%
%ADD21R,1.3500X1.4100*%
%ADD22R,0.9100X1.2200*%
%ADD23R,0.6000X0.4000*%
%ADD24R,0.4000X0.6000*%
%ADD25R,1.2500X0.7000*%
%ADD26MACRO1,0.864X0.8065X-90.0000*%
%ADD27MACRO1,0.864X0.8065X90.0000*%
%ADD28MACRO1,0.54X0.5656X0.0000*%
%ADD29R,0.5400X0.5657*%
%ADD30MACRO1,0.54X0.5656X-90.0000*%
%ADD31MACRO1,0.54X0.5656X90.0000*%
%ADD32R,1.8600X1.2300*%
%ADD33R,1.5000X0.9000*%
%ADD34R,0.9000X1.5000*%
%ADD35R,0.9000X0.9000*%
%ADD36R,0.2800X0.9050*%
%ADD37R,0.9050X0.2800*%
%ADD38R,3.3500X3.3500*%
%ADD39R,1.0500X2.4650*%
%ADD40MACRO1,3.54X2.465X0.0000*%
%ADD41R,0.5500X1.1000*%
%ADD42R,0.3000X1.1000*%
%ADD43R,1.3081X1.3081*%
%ADD44R,1.8000X1.8000*%
%ADD45C,1.8000*%
%ADD46R,1.7000X1.7000*%
%ADD47C,1.7000*%
%ADD48C,1.8796*%
%ADD49R,1.7780X2.2860*%
%ADD50C,1.6332*%
%ADD51R,1.6332X1.6332*%
%ADD52C,3.5159*%
%ADD53O,1.099998X1.999996*%
%ADD54O,1.199998X1.799996*%
%ADD55C,0.6200*%

%LPD*%
D10*
X3197092Y10094437D02*
G01*
X3095431Y9992774D01*
X3095431Y9940747D01*
D11*
X3095431Y9775647D02*
G01*
X3088982Y9769198D01*
X3088982Y9610981D01*
X3197082Y9934978D02*
G01*
X3191314Y9940747D01*
X3095431Y9940747D01*
D12*
X3197031Y9794951D02*
G01*
X3197031Y9851847D01*
X2803331Y9851847D01*
X2803331Y9823904D01*
D11*
X682431Y9799446D02*
G01*
X682431Y9801047D01*
X872931Y9991547D02*
G01*
X872931Y9990686D01*
X872931Y9840008D02*
G01*
X759493Y9953447D01*
X441131Y9953447D01*
X1368231Y9724847D02*
G01*
X1812731Y9280347D01*
X2879531Y9280347D01*
X5000431Y8556447D02*
G01*
X5000431Y8555951D01*
X885631Y10308186D02*
G01*
X1024470Y10169347D01*
X1596831Y10169347D01*
X885631Y10308178D02*
G01*
X784893Y10207447D01*
X441131Y10207447D01*
X4873431Y8555951D02*
G01*
X4873431Y8556447D01*
X4746431Y8555926D02*
G01*
X4746431Y8531047D01*
X4606731Y8556447D02*
G01*
X4607239Y8555939D01*
X4619419Y8555939D01*
X1076131Y2727147D02*
G01*
X5203631Y6854647D01*
X5991031Y6854647D01*
X1927031Y2727147D02*
G01*
X1749231Y2904947D01*
X1749231Y3285947D01*
X5190931Y6727647D01*
X6143431Y6727647D01*
X822131Y2727147D02*
G01*
X999931Y2549347D01*
X1609531Y2549347D01*
X1673031Y2612847D01*
X1673031Y2727147D01*
X4061940Y9572937D02*
G01*
X4061449Y9572447D01*
X4047931Y9572447D01*
X1711131Y9623247D02*
G01*
X2015931Y9623247D01*
X4086031Y7680147D02*
G01*
X4340031Y7934147D01*
X4492431Y7934147D01*
X2523931Y6956247D02*
G01*
X2816031Y7248347D01*
X2816031Y7743647D01*
X6460931Y9432747D02*
G01*
X6460982Y9432696D01*
X6460982Y9426676D01*
X6333931Y10194747D02*
G01*
X6448231Y10080447D01*
X6448231Y9712147D01*
X3533327Y7840423D02*
G01*
X3679631Y7986720D01*
X3679631Y8467547D01*
X3806631Y8594547D01*
X4149531Y8594547D01*
X4168073Y8613089D01*
X4168073Y8663889D01*
X4492431Y8988247D01*
X4492431Y10220147D01*
X3533427Y8348545D02*
G01*
X3412931Y8469048D01*
X3412931Y9000947D01*
X3603922Y9191929D01*
X4061940Y9191929D01*
X3533427Y8602545D02*
G01*
X3995816Y9064929D01*
X4061940Y9064929D01*
X4060631Y9826447D02*
G01*
X4061122Y9826937D01*
X4061940Y9826937D01*
X5419531Y9521647D02*
G01*
X5419531Y10105847D01*
X5521614Y10207929D01*
X5811936Y10207929D01*
X5597331Y9521647D02*
G01*
X5597331Y10067747D01*
X5610514Y10080929D01*
X5811936Y10080929D01*
X4061952Y8937929D02*
G01*
X4061952Y8938315D01*
X4062003Y8938364D01*
X5813231Y7121347D02*
G01*
X5648131Y6956247D01*
X3031931Y6956247D01*
X5305231Y7121347D02*
G01*
X4492431Y7934147D01*
X4492431Y8555939D01*
X9572431Y6359347D02*
G01*
X9140631Y6359347D01*
X7813735Y7686248D01*
X7616631Y7686248D01*
X9572431Y6105347D02*
G01*
X9724831Y6257747D01*
X9724831Y6753047D01*
X9699431Y6778447D01*
X9280331Y6778447D01*
X8232327Y7826446D01*
X7616631Y7826446D01*
X9572431Y6105359D02*
G01*
X9039031Y5571959D01*
X9039031Y3882847D01*
X8785031Y3882847D02*
G01*
X8785031Y6016447D01*
X9127937Y6359359D01*
X9572431Y6359359D01*
X3088982Y9610981D02*
G01*
X3031931Y9553930D01*
X3031931Y6956247D01*
X3228987Y9610981D02*
G01*
X3228987Y8398987D01*
X3533427Y8094545D01*
X580831Y6486334D02*
G01*
X2308019Y6486334D01*
X2777931Y6956247D01*
X4035231Y9953447D02*
G01*
X4061470Y9953447D01*
X4061952Y9953929D01*
X1596831Y10169347D02*
G01*
X479231Y9051747D01*
X479231Y8873947D01*
X1596831Y10169347D02*
G01*
X1596831Y9902647D01*
X1675625Y9823853D01*
X2803331Y9823853D01*
X6041831Y7623147D02*
G01*
X6041831Y7603947D01*
X5559231Y7121347D01*
X6041831Y7483147D02*
G01*
X6041831Y7349947D01*
X5813231Y7121347D01*
X8708831Y8036615D02*
G01*
X8557300Y8188147D01*
X8492931Y8188147D01*
D12*
X4061952Y10207929D02*
G01*
X3552637Y10207929D01*
X3514592Y10245973D01*
X3513731Y10245973D01*
X3363056Y10245973D02*
G01*
X3197956Y10245973D01*
X3197092Y10245112D01*
X3513731Y10245973D02*
G01*
X3363056Y10245973D01*
X3197092Y9794968D02*
G01*
X3228997Y9763071D01*
X3228997Y9610973D01*
X3197092Y9794968D02*
G01*
X3197092Y9801473D01*
X3997192Y10411073D02*
G01*
X4061952Y10346316D01*
X4061952Y10334929D01*
X4061990Y10208384D02*
G01*
X4061952Y10208346D01*
X4061952Y10080929D01*
X4061990Y10335384D02*
G01*
X4657592Y10335384D01*
X4646940Y10324729D01*
X4646940Y9702927D01*
X4786919Y9702927D02*
G01*
X4786919Y9563417D01*
X4786988Y9563348D01*
X4786919Y9702927D02*
G01*
X4926558Y9702927D01*
X4926985Y9703353D01*
X4786988Y9563348D02*
G01*
X4787414Y9562922D01*
X4926924Y9562922D01*
X4926985Y9563348D02*
G01*
X4926924Y9563287D01*
X4926924Y9422917D01*
X4786988Y9563348D02*
G01*
X4786919Y9563282D01*
X4786919Y9422917D01*
X4786919Y9422917D02*
G01*
X4647430Y9422917D01*
X4646978Y9423372D01*
X4786988Y9563348D02*
G01*
X4786558Y9562922D01*
X4646940Y9562922D01*
X4646978Y9563348D02*
G01*
X4646940Y9563387D01*
X4646940Y9702927D01*
X4926924Y9702927D02*
G01*
X5559381Y10335384D01*
X5812005Y10335384D01*
X4646940Y9702927D02*
G01*
X4786558Y9702927D01*
X4786988Y9703353D01*
X4926924Y9702927D02*
G01*
X4926924Y9563412D01*
X4926985Y9563348D01*
X4926924Y9422917D02*
G01*
X4787414Y9422917D01*
X4786988Y9423346D01*
X4646940Y9422917D02*
G01*
X4646940Y9563313D01*
X4646978Y9563348D01*
X3590792Y10036578D02*
G01*
X3590792Y10118973D01*
X3513731Y10196037D01*
X3513731Y10245973D01*
X5811936Y10334929D02*
G01*
X5935073Y10458066D01*
X6663512Y10458066D01*
X6663512Y10458066D02*
G01*
X7528501Y10458066D01*
X6663512Y10038049D02*
G01*
X6663512Y10458066D01*
X7528501Y10458066D02*
G01*
X7528501Y10038049D01*
X6663512Y10038049D02*
G01*
X6718503Y9983058D01*
X6776001Y9983058D01*
X7528501Y10038049D02*
G01*
X7473508Y9983058D01*
X7416012Y9983058D01*
X6658998Y9661773D02*
G01*
X6658998Y9866053D01*
X6776001Y9983058D01*
X6745589Y9661773D02*
G01*
X6770989Y9687173D01*
X6918192Y9687173D01*
X6920984Y9689972D01*
X6920984Y9983058D01*
X7482189Y9636373D02*
G01*
X7482189Y9916878D01*
X7416012Y9983058D01*
X7336005Y9983058D02*
G01*
X7336005Y9891671D01*
X7362692Y9864973D01*
X6854692Y9979273D02*
G01*
X6854692Y9981768D01*
X6855983Y9983058D01*
X6828091Y9445873D02*
G01*
X6829292Y9445873D01*
X6460992Y9566678D02*
G01*
X6556082Y9661773D01*
X6658998Y9661773D01*
X6460931Y9432747D02*
G01*
X6513393Y9380286D01*
X6513393Y9242668D01*
X6678096Y9445873D02*
G01*
X6658998Y9464974D01*
X6658998Y9661773D01*
X7021009Y9983058D02*
G01*
X7021009Y10069395D01*
X7032492Y10080873D01*
X7108692Y10080873D01*
X7121009Y10068552D01*
X7121009Y9983058D01*
X7170978Y9983058D02*
G01*
X7172192Y9877673D01*
X7159492Y9864973D01*
X7095992Y9864973D01*
X7070979Y9889997D01*
X7070979Y9983058D01*
X7395598Y9636373D02*
G01*
X7220983Y9810988D01*
X7220983Y9983058D01*
X7019792Y9724052D02*
G01*
X7021009Y9725273D01*
X7021009Y9983058D01*
X7159492Y9859233D02*
G01*
X7159492Y9718316D01*
X7019792Y9574077D02*
G01*
X7159492Y9574077D01*
X7159492Y9574077D02*
G01*
X7173396Y9560173D01*
X7476992Y9560173D01*
X7482189Y9565370D01*
X7482189Y9636373D01*
X6829292Y9445873D02*
G01*
X6840418Y9434756D01*
X6840418Y9242668D01*
X7470792Y9229968D02*
G01*
X7476992Y9236168D01*
X7476992Y9560173D01*
X7330795Y9229968D02*
G01*
X7326193Y9225366D01*
X7326193Y8959722D01*
X7326193Y8959722D02*
G01*
X7276188Y8959722D01*
X6867392Y9025887D02*
G01*
X6840418Y9052862D01*
X6840418Y9242668D01*
X6867392Y8875237D02*
G01*
X6773298Y8781140D01*
X6773298Y8594968D01*
X7159492Y9724064D02*
G01*
X7159431Y9724003D01*
X7159431Y9712147D01*
X7019792Y9724064D02*
G01*
X7019731Y9724128D01*
X7019731Y9724847D01*
X7083231Y9343847D02*
G01*
X7083231Y9216847D01*
X7388031Y9064447D02*
G01*
X7376180Y9052590D01*
X7376180Y8959722D01*
X7476182Y8959722D02*
G01*
X7476182Y8771963D01*
X7426192Y8721968D01*
X7451531Y9115247D02*
G01*
X7451531Y9039047D01*
X7426131Y9013647D01*
X7426131Y8959796D01*
D11*
X7476169Y8959796D02*
G01*
X7476931Y9010596D01*
X7527731Y9061396D01*
X7527731Y9153347D01*
X7470835Y9210248D01*
X7470835Y9230055D01*
X6859884Y8594968D02*
G01*
X6873836Y8581016D01*
X6873836Y8429447D01*
X6773298Y8594968D02*
G01*
X6733832Y8555504D01*
X6733832Y8429447D01*
X6460931Y9566605D02*
G01*
X6384731Y9490405D01*
X6384731Y9356547D01*
X6435531Y9305747D01*
X6435531Y9166047D01*
X6460931Y9140647D01*
X6740331Y9140647D01*
X6740331Y8823147D01*
X6689531Y8772347D01*
X6689531Y8531047D01*
X6651431Y8492947D01*
X6651431Y8340547D01*
X6689531Y8302447D01*
X6892731Y8302447D01*
X6892731Y8429447D01*
X6873935Y8429447D01*
X7057892Y8996184D02*
G01*
X7057831Y8996123D01*
X7057831Y8988247D01*
X7083231Y8810447D02*
G01*
X7094753Y8821968D01*
X7188446Y8821968D01*
D12*
X7276188Y8959722D02*
G01*
X7153132Y9082765D01*
X7057892Y9082765D01*
X6867392Y8875237D02*
G01*
X6870666Y8871963D01*
X7188454Y8871963D01*
D11*
X7820593Y8721547D02*
G01*
X7663878Y8722055D01*
X7310945Y8302447D02*
G01*
X7311831Y8302447D01*
X7756331Y8810447D02*
G01*
X7717848Y8771963D01*
X7663934Y8771963D01*
X7971469Y8721547D02*
G01*
X7972231Y10283647D01*
X7629331Y10283647D01*
X5800531Y9953447D02*
G01*
X5811451Y9953447D01*
X5811936Y9953929D01*
X7160300Y8302447D02*
G01*
X7147600Y8315147D01*
X7146731Y8315147D01*
X5800531Y9826447D02*
G01*
X5801014Y9826929D01*
X5811936Y9826929D01*
X6689531Y8748397D02*
G01*
X6637591Y8800340D01*
X6448231Y8800340D01*
X6448231Y8363404D02*
G01*
X6448231Y8670747D01*
X6435049Y8683929D01*
X5811936Y8683929D01*
X3197092Y10245112D02*
G01*
X3181367Y10260832D01*
X2803331Y10260832D01*
X3197092Y9794968D02*
G01*
X3298692Y9896568D01*
X3590792Y9896568D01*
X6257731Y7678534D02*
G01*
X6202349Y7623157D01*
X6041831Y7623157D01*
X6041831Y7483147D02*
G01*
X6046439Y7478534D01*
X6257731Y7478534D01*
X6257731Y7678534D02*
G01*
X6475237Y7896047D01*
X6765731Y7896047D01*
X6791131Y7870647D01*
X6791131Y7622984D01*
X6257731Y7478534D02*
G01*
X6402181Y7622984D01*
X6561137Y7622984D01*
X7349931Y7669047D02*
G01*
X7310231Y7629347D01*
X7019731Y7629347D01*
X7349931Y7869120D02*
G01*
X6791131Y7870647D01*
X7616631Y7826357D02*
G01*
X7573937Y7869046D01*
X7349931Y7869046D01*
X7616631Y7686347D02*
G01*
X7599329Y7669047D01*
X7349931Y7669047D01*
X6791131Y7622984D02*
G01*
X6791131Y7051484D01*
X7019731Y7629347D02*
G01*
X7021126Y7627957D01*
X7021126Y7622984D01*
X8392924Y9032946D02*
G01*
X8289731Y8929758D01*
X8289731Y8822278D01*
X8289731Y8671628D02*
G01*
X8380224Y8581141D01*
X8380224Y8473648D01*
X8492931Y8822265D02*
G01*
X8492931Y9122935D01*
X8392924Y9222948D01*
X8492931Y8671615D02*
G01*
X8480231Y8658915D01*
X8480231Y8340547D01*
X8423335Y8283646D01*
X8380224Y8283646D01*
X8289731Y8822278D02*
G01*
X8212663Y8899347D01*
X8035731Y8899347D01*
X7883331Y8899347D02*
G01*
X7855948Y8871963D01*
X7663934Y8871963D01*
X8607231Y9420933D02*
G01*
X8592926Y9406628D01*
X8592926Y9127947D01*
X6956231Y8277047D02*
G01*
X7083231Y8404047D01*
X7083231Y8696147D01*
X7197531Y8975547D02*
G01*
X7228773Y9007048D01*
X7663934Y8671963D02*
G01*
X7729715Y8671963D01*
X7781731Y8619947D01*
X8175431Y8619947D01*
X8175431Y8488446D01*
X8380224Y8283646D01*
X6791131Y7870647D02*
G01*
X6727631Y7934147D01*
X6727631Y8302447D01*
X6850570Y8302447D01*
X6841931Y8124647D02*
G01*
X7464231Y8124647D01*
X7476931Y8137347D01*
X7476931Y8340547D01*
X7591231Y8340547D01*
X7781731Y8531047D01*
X8035731Y8531047D01*
X8607231Y9572447D02*
G01*
X8607231Y9571578D01*
X8580226Y8378647D02*
G01*
X8708831Y8250034D01*
X8708831Y8187265D01*
X479231Y8619947D02*
G01*
X263331Y8404047D01*
X263331Y6308547D01*
X339531Y6232347D01*
X580826Y6232347D01*
X313387Y6258491D02*
G01*
X313387Y2498547D01*
X593531Y2498547D01*
X822131Y2727147D01*
D13*
G01*
X682431Y9799452D03*
D14*
G01*
X682421Y9599447D03*
D16*
G01*
X872931Y9990672D03*
D17*
G01*
X872921Y9840010D03*
D18*
G01*
X3197097Y9934981D03*
G01*
X3197097Y9794976D03*
D19*
G01*
X3088995Y9610979D03*
G01*
X3229000Y9610979D03*
G01*
X7330795Y9229979D03*
G01*
X7470800Y9229979D03*
G01*
X6733844Y8429447D03*
G01*
X6873824Y8429447D03*
D18*
G01*
X3590797Y10036581D03*
G01*
X3590797Y9896576D03*
G01*
X6460997Y9426676D03*
G01*
X6460997Y9566681D03*
G01*
X7616621Y7686344D03*
G01*
X7616621Y7826349D03*
G01*
X6041821Y7483144D03*
G01*
X6041821Y7623149D03*
D20*
G01*
X7349931Y7669044D03*
D21*
G01*
X7349921Y7869046D03*
D20*
G01*
X6257731Y7478544D03*
D21*
G01*
X6257721Y7678546D03*
D22*
G01*
X6513372Y9242679D03*
G01*
X6840397Y9242679D03*
D23*
G01*
X6828078Y9445879D03*
G01*
X6678091Y9445879D03*
D24*
G01*
X7159497Y9724059D03*
G01*
X7159497Y9574072D03*
G01*
X7019797Y9724059D03*
G01*
X7019797Y9574072D03*
D25*
G01*
X8380222Y8473643D03*
G01*
X8380222Y8283651D03*
G01*
X8580221Y8378647D03*
G01*
X8392922Y9222943D03*
G01*
X8392922Y9032951D03*
G01*
X8592921Y9127947D03*
D16*
G01*
X3197092Y10245098D03*
D17*
G01*
X3197097Y10094442D03*
D26*
G01*
X7160306Y8302447D03*
G01*
X7310956Y8302447D03*
D27*
G01*
X7971356Y8721547D03*
G01*
X7820706Y8721547D03*
G01*
X3513717Y10245973D03*
G01*
X3363067Y10245973D03*
D16*
G01*
X8289731Y8822272D03*
D17*
G01*
X8289721Y8671610D03*
D16*
G01*
X8492931Y8671622D03*
D17*
G01*
X8492921Y8822283D03*
D16*
G01*
X8708831Y8036622D03*
D17*
G01*
X8708821Y8187283D03*
D16*
G01*
X8607231Y9571572D03*
D17*
G01*
X8607221Y9420910D03*
D16*
G01*
X6867392Y8875248D03*
D17*
G01*
X6867397Y9025889D03*
D28*
G01*
X7057892Y8996191D03*
D29*
G01*
X7057897Y9082760D03*
D30*
G01*
X6773310Y8594973D03*
G01*
X6859875Y8594973D03*
G01*
X6659010Y9661773D03*
G01*
X6745575Y9661773D03*
D31*
G01*
X7482175Y9636373D03*
G01*
X7395610Y9636373D03*
D32*
G01*
X2803321Y9823856D03*
G01*
X2803321Y10260837D03*
G01*
X6448221Y8800337D03*
G01*
X6448221Y8363356D03*
D33*
G01*
X4061942Y10334929D03*
G01*
X4061942Y10207929D03*
G01*
X4061942Y10080929D03*
G01*
X4061942Y9953929D03*
G01*
X4061942Y9826929D03*
G01*
X4061942Y9699929D03*
G01*
X4061942Y9572929D03*
G01*
X4061942Y9445929D03*
G01*
X4061942Y9318929D03*
G01*
X4061942Y9191929D03*
G01*
X4061942Y9064929D03*
G01*
X4061942Y8937929D03*
G01*
X4061942Y8810929D03*
G01*
X4061942Y8683929D03*
D34*
G01*
X4238421Y8555939D03*
G01*
X4365421Y8555939D03*
G01*
X4492421Y8555939D03*
G01*
X4619421Y8555939D03*
G01*
X4746421Y8555939D03*
G01*
X4873421Y8555939D03*
G01*
X5000421Y8555939D03*
G01*
X5127421Y8555939D03*
G01*
X5254421Y8555939D03*
G01*
X5381421Y8555939D03*
G01*
X5508421Y8555939D03*
G01*
X5635421Y8558936D03*
D33*
G01*
X5811926Y8683929D03*
G01*
X5811926Y8810929D03*
G01*
X5811926Y8937929D03*
G01*
X5811926Y9064929D03*
G01*
X5811926Y9191929D03*
G01*
X5811926Y9318929D03*
G01*
X5811926Y9445929D03*
G01*
X5811926Y9572929D03*
G01*
X5811926Y9699929D03*
G01*
X5811926Y9826929D03*
G01*
X5811926Y9953929D03*
G01*
X5811926Y10080929D03*
G01*
X5811926Y10207929D03*
G01*
X5811926Y10334929D03*
D35*
G01*
X4786909Y9562922D03*
G01*
X4646929Y9562922D03*
G01*
X4926914Y9562922D03*
G01*
X4926914Y9702927D03*
G01*
X4786909Y9702927D03*
G01*
X4646929Y9702927D03*
G01*
X4646929Y9422942D03*
G01*
X4786909Y9422917D03*
G01*
X4926914Y9422942D03*
D36*
G01*
X7576184Y8959722D03*
G01*
X7526197Y8959722D03*
G01*
X7476185Y8959722D03*
G01*
X7426197Y8959722D03*
G01*
X7376185Y8959722D03*
G01*
X7326198Y8959722D03*
G01*
X7276185Y8959722D03*
D37*
G01*
X7188454Y8871965D03*
G01*
X7188454Y8821978D03*
G01*
X7188454Y8771966D03*
G01*
X7188454Y8721979D03*
G01*
X7188454Y8671966D03*
G01*
X7188454Y8621979D03*
G01*
X7188454Y8571966D03*
D36*
G01*
X7276185Y8484235D03*
G01*
X7326198Y8484235D03*
G01*
X7376185Y8484235D03*
G01*
X7426197Y8484235D03*
G01*
X7476185Y8484235D03*
G01*
X7526197Y8484235D03*
G01*
X7576184Y8484235D03*
D37*
G01*
X7663941Y8571966D03*
G01*
X7663941Y8621979D03*
G01*
X7663941Y8671966D03*
G01*
X7663941Y8721979D03*
G01*
X7663941Y8771966D03*
G01*
X7663941Y8821978D03*
G01*
X7663941Y8871965D03*
D38*
G01*
X7426197Y8721979D03*
D39*
G01*
X7021144Y7622997D03*
G01*
X6791121Y7622997D03*
G01*
X6561124Y7622997D03*
D40*
G01*
X6791131Y7051497D03*
D41*
G01*
X7415987Y9983063D03*
G01*
X7335977Y9983063D03*
D42*
G01*
X7270978Y9983063D03*
G01*
X7220965Y9983063D03*
G01*
X7170978Y9983063D03*
G01*
X7120991Y9983063D03*
G01*
X7070979Y9983063D03*
G01*
X7020991Y9983063D03*
G01*
X6970979Y9983063D03*
G01*
X6920966Y9983063D03*
D41*
G01*
X6855968Y9983063D03*
G01*
X6775983Y9983063D03*
D43*
G01*
X3533419Y7840548D03*
G01*
X3533419Y8094548D03*
G01*
X3533419Y8348548D03*
G01*
X3533419Y8602548D03*
G01*
X3533419Y8856548D03*
D44*
G01*
X580821Y6486347D03*
D45*
G01*
X580821Y6232347D03*
G01*
X580821Y5978347D03*
D44*
G01*
X9572421Y6105347D03*
D45*
G01*
X9572421Y6359347D03*
G01*
X9572421Y6613347D03*
D44*
G01*
X568121Y2727147D03*
D45*
G01*
X822121Y2727147D03*
G01*
X1076121Y2727147D03*
D44*
G01*
X1419021Y2727147D03*
D45*
G01*
X1673021Y2727147D03*
G01*
X1927021Y2727147D03*
D46*
G01*
X1596821Y10169347D03*
D47*
G01*
X1850821Y10169347D03*
G01*
X2104821Y10169347D03*
D48*
G01*
X5813221Y7121347D03*
G01*
X5559221Y7121347D03*
G01*
X5305221Y7121347D03*
G01*
X5051221Y7121347D03*
G01*
X4797221Y7121347D03*
G01*
X4543221Y7121347D03*
G01*
X4289221Y7121347D03*
G01*
X4035221Y7121347D03*
G01*
X3781221Y7121347D03*
G01*
X3527221Y7121347D03*
D49*
G01*
X8785021Y3882847D03*
G01*
X9039021Y3882847D03*
G01*
X9293021Y3882847D03*
G01*
X9547021Y3882847D03*
G01*
X9801021Y3882847D03*
D50*
G01*
X2269921Y6956247D03*
G01*
X2523921Y6956247D03*
G01*
X2777921Y6956247D03*
D51*
G01*
X3031921Y6956247D03*
D52*
G01*
X2904921Y6029147D03*
D53*
G01*
X7528483Y10038054D03*
G01*
X6663486Y10038054D03*
D54*
G01*
X7528483Y10458069D03*
G01*
X6663486Y10458069D03*
D46*
G01*
X441121Y9699447D03*
D47*
G01*
X441121Y9953447D03*
G01*
X441121Y10207447D03*
D46*
G01*
X479221Y8873947D03*
D47*
G01*
X479221Y8619947D03*
G01*
X479221Y8365947D03*
D55*
G01*
X3197072Y9801479D03*
G01*
X3997172Y10411079D03*
G01*
X7362672Y9864979D03*
G01*
X6854672Y9979279D03*
G01*
X6829272Y9445879D03*
G01*
X7159421Y9712147D03*
G01*
X7019721Y9724847D03*
G01*
X7451521Y9115247D03*
G01*
X7083221Y9343847D03*
G01*
X7083221Y9216847D03*
G01*
X7388021Y9064447D03*
G01*
X7057821Y8988247D03*
G01*
X7083221Y8810447D03*
G01*
X7311821Y8302447D03*
G01*
X7756321Y8810447D03*
G01*
X7629321Y10283647D03*
G01*
X5800521Y9953447D03*
G01*
X7146721Y8315147D03*
G01*
X5800521Y9826447D03*
G01*
X6513372Y9242679D03*
G01*
X7019721Y7629347D03*
G01*
X8035721Y8899347D03*
G01*
X7883321Y8899347D03*
G01*
X6561124Y7622997D03*
G01*
X6956221Y8277047D03*
G01*
X7083221Y8696147D03*
G01*
X7197521Y8975547D03*
G01*
X6448221Y8363407D03*
G01*
X6841921Y8124647D03*
G01*
X8035721Y8531047D03*
G01*
X8607221Y9572447D03*
G01*
X8492921Y8188147D03*
G01*
X4086021Y10080447D03*
G01*
X4035221Y9953447D03*
G01*
X4060621Y8937447D03*
G01*
X5597321Y9521647D03*
G01*
X5419521Y9521647D03*
G01*
X4060621Y9826447D03*
G01*
X4492421Y10220147D03*
G01*
X6333921Y10194747D03*
G01*
X6448221Y9712147D03*
G01*
X6460921Y9432747D03*
G01*
X2816021Y7743647D03*
G01*
X4086021Y7680147D03*
G01*
X1711121Y9623247D03*
G01*
X2015921Y9623247D03*
G01*
X4047921Y9572447D03*
G01*
X5991021Y6854647D03*
G01*
X4606721Y8556447D03*
G01*
X6143421Y6727647D03*
G01*
X4746421Y8531047D03*
G01*
X872921Y9991547D03*
G01*
X1368221Y9724847D03*
G01*
X2879521Y9280347D03*
G01*
X5000421Y8556447D03*
G01*
X682421Y9801047D03*
G01*
X682421Y9599447D03*
G01*
X3095421Y9940747D03*
G01*
X3095421Y9775647D03*
M02*
