G04 Layer: BottomSolderMaskLayer*
G04 EasyEDA v6.5.54, 2026-06-07 20:14:10*
G04 b9cd64c203934d81a84768f3e5580de7,e59cfd7f91104955829aa9c13f43603c,10*
G04 Gerber Generator version 0.2*
G04 Scale: 100 percent, Rotated: No, Reflected: No *
G04 Dimensions in millimeters *
G04 leading zeros omitted , absolute positions ,4 integer and 5 decimal *
%FSLAX45Y45*%
%MOMM*%

%AMMACRO1*4,1,8,-0.6751,-0.7049,-0.7049,-0.6751,-0.7049,0.6751,-0.6751,0.7049,0.6751,0.7049,0.7049,0.6751,0.7049,-0.6751,0.6751,-0.7049,-0.6751,-0.7049,0*%
%AMMACRO2*4,1,8,-0.9211,-0.9508,-0.9508,-0.921,-0.9508,0.9211,-0.9211,0.9508,0.921,0.9508,0.9508,0.9211,0.9508,-0.921,0.921,-0.9508,-0.9211,-0.9508,0*%
%AMMACRO3*4,1,8,-0.8711,-0.9008,-0.9008,-0.871,-0.9008,0.8711,-0.8711,0.9008,0.871,0.9008,0.9008,0.8711,0.9008,-0.871,0.871,-0.9008,-0.8711,-0.9008,0*%
%AMMACRO4*4,1,8,-0.9101,-1.1938,-0.9398,-1.164,-0.9398,1.1641,-0.9101,1.1938,0.91,1.1938,0.9398,1.1641,0.9398,-1.164,0.91,-1.1938,-0.9101,-1.1938,0*%
%AMMACRO5*4,1,8,-0.8587,-0.9182,-0.9182,-0.8587,-0.9182,0.8587,-0.8587,0.9182,0.8587,0.9182,0.9182,0.8587,0.9182,-0.8587,0.8587,-0.9182,-0.8587,-0.9182,0*%
%ADD10MACRO1*%
%ADD11MACRO2*%
%ADD12C,1.9016*%
%ADD13MACRO3*%
%ADD14C,1.8016*%
%ADD15C,1.9812*%
%ADD16C,0.0160*%
%ADD17MACRO4*%
%ADD18C,1.8364*%
%ADD19MACRO5*%
%ADD20C,3.7191*%
%ADD21O,1.200023X2.100021*%
%ADD22O,1.300023X1.900022*%

%LPD*%
D10*
G01*
X3533429Y7840548D03*
G01*
X3533429Y8094548D03*
G01*
X3533429Y8348548D03*
G01*
X3533429Y8602548D03*
G01*
X3533429Y8856548D03*
D11*
G01*
X580831Y6486347D03*
D12*
G01*
X580821Y6232347D03*
G01*
X580821Y5978347D03*
D11*
G01*
X9572431Y6105347D03*
D12*
G01*
X9572421Y6359347D03*
G01*
X9572421Y6613347D03*
D11*
G01*
X568131Y2727147D03*
D12*
G01*
X822121Y2727147D03*
G01*
X1076121Y2727147D03*
D11*
G01*
X1419031Y2727147D03*
D12*
G01*
X1673021Y2727147D03*
G01*
X1927021Y2727147D03*
D13*
G01*
X1596831Y10169347D03*
D14*
G01*
X1850821Y10169347D03*
G01*
X2104821Y10169347D03*
D15*
G01*
X5813221Y7121347D03*
G01*
X5559221Y7121347D03*
G01*
X5305221Y7121347D03*
G01*
X5051221Y7121347D03*
G01*
X4797221Y7121347D03*
G01*
X4543221Y7121347D03*
G01*
X4289221Y7121347D03*
G01*
X4035221Y7121347D03*
G01*
X3781221Y7121347D03*
G01*
X3527221Y7121347D03*
D17*
G01*
X8785031Y3882847D03*
G01*
X9039031Y3882847D03*
G01*
X9293031Y3882847D03*
G01*
X9547031Y3882847D03*
G01*
X9801031Y3882847D03*
D18*
G01*
X2269921Y6956247D03*
G01*
X2523921Y6956247D03*
G01*
X2777921Y6956247D03*
D19*
G01*
X3031931Y6956247D03*
D20*
G01*
X2904921Y6029147D03*
D21*
G01*
X7528483Y10038054D03*
G01*
X6663486Y10038054D03*
D22*
G01*
X7528483Y10458069D03*
G01*
X6663486Y10458069D03*
D13*
G01*
X441131Y9699447D03*
D14*
G01*
X441121Y9953447D03*
G01*
X441121Y10207447D03*
D13*
G01*
X479231Y8873947D03*
D14*
G01*
X479221Y8619947D03*
G01*
X479221Y8365947D03*
M02*
