M48
METRIC,LZ,000.000
;FILE_FORMAT=3:3
;TYPE=PLATED
;Layer: PTH_Through
;EasyEDA v6.5.54, 2026-06-09 21:10:49
;bbe8056ecce14424a002107b0730e2a7,e59cfd7f91104955829aa9c13f43603c,10
;Gerber Generator version 0.2
;Holesize 1 = 0.310 mm
T01C0.310
;Holesize 2 = 0.801 mm
T02C0.801
;Holesize 3 = 0.889 mm
T03C0.889
;Holesize 4 = 1.000 mm
T04C1.000
;Holesize 5 = 1.001 mm
T05C1.001
;Holesize 6 = 1.200 mm
T06C1.200
;Holesize 7 = 1.800 mm
T07C1.800
%
G05
G90
T01
X057785Y038481
X062357Y039878
X060706Y033020
X060960Y030607
X061468Y042418
X059944Y042164
X065278Y046228
X066025Y043815
X157861Y082042
X140480Y054274
X164102Y053004
X183787Y052242
X161163Y074812
X159004Y074812
X154940Y074803
X106807Y057150
X104140Y057912
X102616Y054356
X058277Y029083
X093599Y056642
X095758Y054737
X085598Y043942
X087376Y043815
X056515Y014986
X059563Y014986
X074168Y031496
X077343Y031750
X074168Y005842
X077343Y003175
X140480Y050374
X109347Y031877
X164102Y049104
X183787Y048342
X172974Y037846
X154940Y076318
T02
X058878Y069915G85X058884Y069915
X061418Y069915G85X061424Y069915
X063958Y069915G85X063964Y069915
X066498Y069915G85X066504Y069915
X069038Y069915G85X069044Y069915
T03
X117221Y-017018
X117221Y-014478
X117221Y-009398
X117221Y-011938
X117221Y-001778
X117221Y000762
X117221Y-004318
X117221Y-006858
X117221Y013462
X117221Y016002
X117221Y021082
X117221Y018542
X117221Y008382
X117221Y010922
X117221Y005842
X117221Y003302
X117221Y023622
X117221Y026162
X117221Y028702
X117221Y-019558
X117221Y-022098
X117221Y-024638
X094361Y010922
X094361Y013462
X094361Y018542
X094361Y016002
X094361Y026162
X094361Y028702
X094361Y023622
X094361Y021082
X094361Y000762
X094361Y003302
X094361Y008382
X094361Y005842
X094361Y-004318
X094361Y-001778
X094361Y-006858
X094361Y-009398
X094361Y-011938
X094361Y-014478
X094361Y-017018
X094361Y-019558
X094361Y-022098
X094361Y-024638
T04
X025940Y078486
X029940Y078486
X027940Y078486
X032090Y078886G85X032090Y078086
X023790Y078886G85X023790Y078086
T05
X122847Y060670
X120307Y060670
X117767Y060670
X115227Y060670
X112687Y060670
X110147Y060670
X107607Y060670
X105067Y060670
X102527Y060670
X099987Y060670
X097447Y060670
X094907Y060670
X092367Y060670
X102527Y-018070
X105067Y-018070
X107607Y-018070
X110147Y-018070
X089827Y060670
T06
X181517Y013883
X181517Y016423
X181517Y018963
X175327Y025153
X172787Y025153
X170247Y025153
X040293Y013883
X040293Y016423
X040293Y018963
X034103Y025153
X031563Y025153
X029023Y025153
X049657Y039243
X049657Y036703
T07
X166463Y021423
X166463Y011423
X179113Y011423
X179113Y021423
X025239Y021423
X025239Y011423
X037889Y011423
X037889Y021423
M30
