M48
METRIC,LZ,000.000
;FILE_FORMAT=3:3
;TYPE=PLATED
;Layer: PTH_Through_Via
;EasyEDA v6.5.54, 2026-06-09 21:10:49
;bbe8056ecce14424a002107b0730e2a7,e59cfd7f91104955829aa9c13f43603c,10
;Gerber Generator version 0.2
;Holesize 1 = 0.310 mm
T01C0.310
%
G05
G90
T01
X057785Y038481
X062357Y039878
X060706Y033020
X060960Y030607
X061468Y042418
X059944Y042164
X065278Y046228
X066025Y043815
X157861Y082042
X140480Y054274
X164102Y053004
X183787Y052242
X161163Y074812
X159004Y074812
X154940Y074803
X106807Y057150
X104140Y057912
X102616Y054356
X058277Y029083
X093599Y056642
X095758Y054737
X085598Y043942
X087376Y043815
X056515Y014986
X059563Y014986
X074168Y031496
X077343Y031750
X074168Y005842
X077343Y003175
X140480Y050374
X109347Y031877
X164102Y049104
X183787Y048342
X172974Y037846
X154940Y076318
M30
