G04 Layer: BottomLayer*
G04 EasyEDA v6.5.54, 2026-06-09 21:10:49*
G04 bbe8056ecce14424a002107b0730e2a7,e59cfd7f91104955829aa9c13f43603c,10*
G04 Gerber Generator version 0.2*
G04 Scale: 100 percent, Rotated: No, Reflected: No *
G04 Dimensions in millimeters *
G04 leading zeros omitted , absolute positions ,4 integer and 5 decimal *
%FSLAX45Y45*%
%MOMM*%

%AMMACRO1*21,1,$1,$2,0,0,$3*%
%AMMACRO2*4,1,21,1.2,-0.7734,1.2,-0.375,1.8,-0.375,1.8,-0.125,1.2,-0.125,1.2,0.125,1.8,0.125,1.8,0.375,1.2,0.375,1.2,0.825,-1.1999,0.825,-1.1999,0.375,-1.8,0.375,-1.8,0.125,-1.1999,0.125,-1.1999,-0.1249,-1.8,-0.1249,-1.8,-0.375,-1.1999,-0.375,-1.1999,-0.825,1.2,-0.825,1.2,-0.7734,0*%
%ADD10C,0.3000*%
%ADD11C,0.2000*%
%ADD12C,0.2540*%
%ADD13C,1.2700*%
%ADD14MACRO1,1.35X1.41X-90.0000*%
%ADD15C,0.0181*%
%ADD16R,0.8640X0.8065*%
%ADD17MACRO1,0.864X0.8065X0.0000*%
%ADD18MACRO1,0.864X0.8065X90.0000*%
%ADD19MACRO1,0.3X0.8X0.0000*%
%ADD20MACRO1,0.3X0.8499X0.0000*%
%ADD21MACRO2*%
%ADD22R,1.3081X1.3081*%
%ADD23MACRO1,1.6764X1.6764X0.0000*%
%ADD24C,1.6764*%
%ADD25C,1.8000*%
%ADD26C,2.5000*%
%ADD27O,1.599946X1.599997*%
%ADD28O,1.999996X2.999994*%
%ADD29MACRO1,2X2X-90.0000*%
%ADD30C,2.0000*%
%ADD31C,1.5748*%
%ADD32MACRO1,1.5748X1.5748X0.0000*%
%ADD33C,0.6200*%

%LPD*%
D10*
X14048003Y5427395D02*
G01*
X14175003Y5300395D01*
X16410203Y5300395D01*
D11*
X6146800Y4240938D02*
G01*
X6146800Y4241800D01*
X5994400Y4216400D02*
G01*
X5994400Y4202838D01*
X5827699Y2908300D02*
G01*
X6045200Y2908300D01*
X6159500Y3022600D01*
X6159500Y3200400D01*
X6172200Y3213100D01*
X6286500Y3213100D01*
X6286500Y3509263D01*
X6208699Y3587064D01*
X5778500Y3709263D02*
G01*
X5004663Y3709263D01*
X4965700Y3670300D01*
X6058661Y3586987D02*
G01*
X6058661Y3531362D01*
X6019800Y3492500D01*
X6019800Y3390900D01*
X5893561Y3263137D01*
X5893561Y3149600D01*
X6044331Y3149600D02*
G01*
X6044331Y3112368D01*
X6096000Y3060700D01*
X6070600Y3302000D02*
G01*
X6044336Y3275736D01*
X6044336Y3149600D01*
X6070600Y3302000D02*
G01*
X6070600Y3492500D01*
X6108700Y3530600D01*
X6108700Y3587061D01*
X6159500Y3302861D02*
G01*
X6158638Y3302000D01*
X6070600Y3302000D01*
X6159500Y3453637D02*
G01*
X6158738Y3586987D01*
X5778500Y3709261D02*
G01*
X5627700Y3558461D01*
X5627700Y2908300D01*
X6108700Y3733800D02*
G01*
X6108700Y3587064D01*
X6008700Y3587064D02*
G01*
X6008700Y3633800D01*
X6108700Y3733800D01*
X5778500Y3709263D02*
G01*
X5900699Y3587064D01*
X6008700Y3587064D01*
X5778500Y3859938D02*
G01*
X5778500Y3848100D01*
X6158738Y3880612D02*
G01*
X6158738Y3936237D01*
X6210300Y3987800D01*
X6235700Y3987800D01*
X5765800Y4052163D02*
G01*
X5676900Y3963263D01*
X5676900Y3746500D01*
X5714136Y3709263D01*
X5778500Y3709263D01*
X5765800Y4202836D02*
G01*
X5905500Y4063136D01*
X5905500Y3949700D01*
X5974664Y3880535D01*
X6008700Y3880535D01*
X5994400Y4052163D02*
G01*
X6058687Y3987876D01*
X6058687Y3880535D01*
X6146800Y4090263D02*
G01*
X6108700Y4052163D01*
X6108700Y3880538D01*
X6208699Y3880535D02*
G01*
X6230035Y3880535D01*
X6402400Y4052900D01*
X6402400Y4381500D01*
D12*
X6108700Y3733800D02*
G01*
X6172200Y3733800D01*
X6602475Y4164076D01*
X6602475Y4381500D01*
D11*
X6208775Y3586987D02*
G01*
X6279388Y3586987D01*
X6388100Y3695700D01*
X6388100Y3848100D01*
X6731000Y4191000D01*
X6731000Y4775200D01*
X6654800Y4851400D01*
X5956300Y4851400D01*
X5887974Y4935473D01*
X5887974Y6991604D01*
X4965700Y3924300D02*
G01*
X4013200Y3924300D01*
X2590800Y5346700D01*
X2590800Y7785100D01*
X6402400Y4381500D02*
G01*
X3810000Y4381500D01*
X2794000Y5397500D01*
X2794000Y7848600D01*
X2993999Y7848600D02*
G01*
X2993999Y7210450D01*
X3194050Y7010400D01*
X3371850Y6997700D02*
G01*
X3378045Y6991504D01*
X5888098Y6991504D01*
X4965700Y3670300D02*
G01*
X4565370Y3670300D01*
X3410356Y2515285D01*
X3410356Y2515285D02*
G01*
X3410356Y2007285D01*
X4029354Y1388287D01*
X6602399Y4381500D02*
G01*
X6602399Y4548200D01*
X6527800Y4622800D01*
X5888100Y6991502D02*
G01*
X6973798Y8077200D01*
X12001500Y8077200D01*
X12284709Y7793989D01*
X12284709Y6067018D01*
X12030709Y6067018D02*
G01*
X12030709Y7768589D01*
X11823700Y7975600D01*
X7126198Y7975600D01*
X6142100Y6991502D01*
X12030709Y6067018D02*
G01*
X12192228Y5905500D01*
X12471400Y5905500D01*
X14770100Y8204200D01*
X15786100Y8204200D01*
X16410203Y5300395D02*
G01*
X16486403Y5224195D01*
X18378703Y5224195D01*
X16410203Y5300395D02*
G01*
X17024756Y4685842D01*
X17024756Y2515285D01*
X17024756Y2515285D02*
G01*
X17643754Y1896287D01*
X18151754Y1896287D01*
X16410203Y5300395D02*
G01*
X16116300Y5594299D01*
X16116300Y7481163D01*
X15900400Y7481161D02*
G01*
X15899538Y7480300D01*
X15494000Y7480300D01*
X9236709Y6067044D02*
G01*
X9232900Y6070854D01*
X9232900Y7061200D01*
X9321800Y7150100D01*
X10160000Y7150100D01*
X10252709Y7057389D01*
X10252709Y6067044D01*
X11522709Y6067044D02*
G01*
X11522709Y5363210D01*
X10820400Y4660900D01*
X10820400Y-1079500D01*
X9944100Y-1955800D01*
X9436100Y-1955800D01*
X11268709Y6067044D02*
G01*
X11268709Y5375910D01*
X10629900Y4737100D01*
X10629900Y-990600D01*
X9918700Y-1701800D01*
X9436100Y-1701800D01*
X9998709Y6067044D02*
G01*
X9998709Y5939789D01*
X10515600Y5422900D01*
X10515600Y457200D01*
X10134600Y76200D01*
X9436100Y76200D01*
X10680700Y5715000D02*
G01*
X10604500Y5791200D01*
X10414000Y5791200D01*
X10261600Y5435600D02*
G01*
X10414000Y5283200D01*
X10414000Y1181100D01*
X10071100Y838200D01*
X9436100Y838200D01*
X9236709Y6067018D02*
G01*
X9207500Y6037808D01*
X9207500Y355600D01*
X9232900Y330200D01*
X9436100Y330200D01*
X9490709Y6067018D02*
G01*
X9359900Y5936208D01*
X9359900Y5664200D01*
X9744709Y6067018D02*
G01*
X9575800Y5898108D01*
X9575800Y5473700D01*
X8559800Y4394200D02*
G01*
X8559800Y152400D01*
X8890000Y-177800D01*
X9436100Y-177800D01*
X8737600Y4381500D02*
G01*
X8737600Y406400D01*
X9194800Y-50800D01*
X9677400Y-50800D01*
X9753600Y-127000D01*
X9753600Y-1295400D01*
X9601200Y-1447800D01*
X9436100Y-1447800D01*
X5651500Y1498600D02*
G01*
X5956300Y1498600D01*
X7416800Y3149600D02*
G01*
X7416800Y584200D01*
X7734300Y3175000D02*
G01*
X7734300Y317500D01*
X14048003Y5037378D02*
G01*
X12198324Y3187700D01*
X10934700Y3187700D01*
X16410203Y4910378D02*
G01*
X15551124Y4051300D01*
X13271500Y4051300D01*
X12738100Y3517900D01*
X12738100Y381000D01*
X12433300Y76200D01*
X11722100Y76200D01*
X18378703Y4834178D02*
G01*
X17329124Y3784600D01*
X17297400Y3784600D01*
X15494000Y7631836D02*
G01*
X15507563Y7645400D01*
X16560800Y7645400D01*
X18872200Y5334000D01*
X18872200Y482600D01*
X16941800Y-1447800D01*
X11722100Y-1447800D01*
X10506709Y6067018D02*
G01*
X10506709Y7387589D01*
X10071100Y7823200D01*
X7289800Y7823200D01*
X7086600Y7620000D01*
X7086600Y2667000D01*
X6273800Y1854200D01*
X4029456Y1896363D01*
D13*
G01*
X3194050Y7010400D03*
G01*
X3371850Y6997700D03*
D14*
G01*
X5827702Y2908300D03*
G01*
X5627697Y2908300D03*
G01*
X6602402Y4381500D03*
G01*
X6402397Y4381500D03*
D16*
G01*
X5778500Y3709263D03*
D17*
G01*
X5778500Y3859924D03*
D16*
G01*
X5765800Y4052163D03*
D17*
G01*
X5765800Y4202824D03*
D16*
G01*
X6159500Y3453536D03*
D17*
G01*
X6159500Y3302875D03*
D18*
G01*
X5893675Y3149600D03*
G01*
X6044324Y3149600D03*
D16*
G01*
X6146800Y4240936D03*
D17*
G01*
X6146800Y4090275D03*
D16*
G01*
X5994400Y4202836D03*
D17*
G01*
X5994400Y4052175D03*
D19*
G01*
X6158691Y3880540D03*
G01*
X6208703Y3880540D03*
G01*
X6108703Y3880540D03*
G01*
X6058691Y3880540D03*
G01*
X6008704Y3880540D03*
D20*
G01*
X6008704Y3587069D03*
G01*
X6058691Y3587069D03*
G01*
X6108703Y3587069D03*
G01*
X6158691Y3587069D03*
G01*
X6208703Y3587069D03*
D21*
G01*
X6108700Y3733800D03*
D22*
G01*
X5888100Y6991502D03*
G01*
X6142100Y6991502D03*
G01*
X6396100Y6991502D03*
G01*
X6650100Y6991502D03*
G01*
X6904100Y6991502D03*
D23*
G01*
X12284710Y6067031D03*
D24*
G01*
X12030709Y6067018D03*
G01*
X11776709Y6067018D03*
G01*
X11522709Y6067018D03*
G01*
X11268709Y6067018D03*
G01*
X11014709Y6067018D03*
G01*
X10760709Y6067018D03*
G01*
X10506709Y6067018D03*
G01*
X10252709Y6067018D03*
G01*
X9998709Y6067018D03*
G01*
X9744709Y6067018D03*
G01*
X9490709Y6067018D03*
G01*
X9236709Y6067018D03*
G01*
X10252709Y-1806981D03*
G01*
X10506709Y-1806981D03*
G01*
X10760709Y-1806981D03*
D23*
G01*
X11014710Y-1806968D03*
D24*
G01*
X8982709Y6067018D03*
D25*
G01*
X18151754Y1388287D03*
G01*
X18151754Y1642287D03*
G01*
X18151754Y1896287D03*
G01*
X17532756Y2515285D03*
G01*
X17278756Y2515285D03*
G01*
X17024756Y2515285D03*
D26*
G01*
X16646270Y2142286D03*
G01*
X16646270Y1142288D03*
G01*
X17911267Y1142288D03*
G01*
X17911267Y2142286D03*
D27*
G01*
X2594000Y7848600D03*
G01*
X2993999Y7848600D03*
G01*
X2794000Y7848600D03*
D28*
G01*
X3209010Y7848600D03*
G01*
X2378989Y7848600D03*
D25*
G01*
X4029354Y1388287D03*
G01*
X4029354Y1642287D03*
G01*
X4029354Y1896287D03*
G01*
X3410356Y2515285D03*
G01*
X3156356Y2515285D03*
G01*
X2902356Y2515285D03*
D26*
G01*
X2523845Y2142286D03*
G01*
X2523845Y1142288D03*
G01*
X3788841Y1142288D03*
G01*
X3788841Y2142286D03*
D29*
G01*
X4965700Y3924300D03*
D30*
G01*
X4965700Y3670300D03*
D31*
G01*
X11722100Y-1701800D03*
G01*
X11722100Y-1447800D03*
G01*
X11722100Y-939800D03*
G01*
X11722100Y-1193800D03*
G01*
X11722100Y-177800D03*
G01*
X11722100Y76200D03*
G01*
X11722100Y-431800D03*
G01*
X11722100Y-685800D03*
G01*
X11722100Y1346200D03*
G01*
X11722100Y1600200D03*
G01*
X11722100Y2108200D03*
G01*
X11722100Y1854200D03*
G01*
X11722100Y838200D03*
G01*
X11722100Y1092200D03*
G01*
X11722100Y584200D03*
G01*
X11722100Y330200D03*
G01*
X11722100Y2362200D03*
G01*
X11722100Y2616200D03*
D32*
G01*
X11722100Y2870200D03*
D31*
G01*
X11722100Y-1955800D03*
G01*
X11722100Y-2209800D03*
G01*
X11722100Y-2463800D03*
G01*
X9436100Y1092200D03*
G01*
X9436100Y1346200D03*
G01*
X9436100Y1854200D03*
G01*
X9436100Y1600200D03*
G01*
X9436100Y2616200D03*
G01*
X9436100Y2870200D03*
G01*
X9436100Y2362200D03*
G01*
X9436100Y2108200D03*
G01*
X9436100Y76200D03*
G01*
X9436100Y330200D03*
G01*
X9436100Y838200D03*
G01*
X9436100Y584200D03*
G01*
X9436100Y-431800D03*
G01*
X9436100Y-177800D03*
G01*
X9436100Y-685800D03*
G01*
X9436100Y-939800D03*
G01*
X9436100Y-1193800D03*
G01*
X9436100Y-1447800D03*
G01*
X9436100Y-1701800D03*
G01*
X9436100Y-1955800D03*
G01*
X9436100Y-2209800D03*
G01*
X9436100Y-2463800D03*
D33*
G01*
X5778500Y3848100D03*
G01*
X6235700Y3987800D03*
G01*
X6070600Y3302000D03*
G01*
X6096000Y3060700D03*
G01*
X6146800Y4241800D03*
G01*
X5994400Y4216400D03*
G01*
X6527800Y4622800D03*
G01*
X6602475Y4381500D03*
G01*
X15786100Y8204200D03*
G01*
X14048003Y5427395D03*
G01*
X16410203Y5300395D03*
G01*
X18378703Y5224195D03*
G01*
X16116300Y7481163D03*
G01*
X15900400Y7481163D03*
G01*
X15494000Y7480300D03*
G01*
X10680700Y5715000D03*
G01*
X10414000Y5791200D03*
G01*
X10261600Y5435600D03*
G01*
X5827699Y2908300D03*
G01*
X9359900Y5664200D03*
G01*
X9575800Y5473700D03*
G01*
X8559800Y4394200D03*
G01*
X8737600Y4381500D03*
G01*
X5651500Y1498600D03*
G01*
X5956300Y1498600D03*
G01*
X7416800Y3149600D03*
G01*
X7734300Y3175000D03*
G01*
X7416800Y584200D03*
G01*
X7734300Y317500D03*
G01*
X14048003Y5037378D03*
G01*
X10934700Y3187700D03*
G01*
X16410203Y4910378D03*
G01*
X18378703Y4834178D03*
G01*
X17297400Y3784600D03*
G01*
X15494000Y7631836D03*
M02*
