G04 Layer: BottomSolderMaskLayer*
G04 EasyEDA v6.5.54, 2026-06-09 21:10:49*
G04 bbe8056ecce14424a002107b0730e2a7,e59cfd7f91104955829aa9c13f43603c,10*
G04 Gerber Generator version 0.2*
G04 Scale: 100 percent, Rotated: No, Reflected: No *
G04 Dimensions in millimeters *
G04 leading zeros omitted , absolute positions ,4 integer and 5 decimal *
%FSLAX45Y45*%
%MOMM*%

%AMMACRO1*4,1,8,-0.6751,-0.7048,-0.7049,-0.6751,-0.7049,0.6751,-0.6751,0.7048,0.6751,0.7048,0.7049,0.6751,0.7049,-0.6751,0.6751,-0.7048,-0.6751,-0.7048,0*%
%AMMACRO2*4,1,8,-0.8593,-0.889,-0.889,-0.8592,-0.889,0.8593,-0.8593,0.889,0.8592,0.889,0.889,0.8593,0.889,-0.8592,0.8592,-0.889,-0.8593,-0.889,0*%
%AMMACRO3*4,1,8,-0.7261,-0.7258,-0.7558,-0.696,-0.7558,0.6961,-0.7261,0.7258,0.726,0.7258,0.7558,0.6961,0.7558,-0.696,0.726,-0.7258,-0.7261,-0.7258,0*%
%AMMACRO4*4,1,8,-1.0211,-1.0508,-1.0508,-1.021,-1.0508,1.0211,-1.0211,1.0508,1.021,1.0508,1.0508,1.0211,1.0508,-1.021,1.021,-1.0508,-1.0211,-1.0508,0*%
%AMMACRO5*4,1,8,-0.4531,-0.454,-0.4828,-0.4243,-0.4828,0.4243,-0.4531,0.454,0.453,0.454,0.4828,0.4243,0.4828,-0.4243,0.453,-0.454,-0.4531,-0.454,0*%
%AMMACRO6*4,1,8,-0.4243,-0.4828,-0.454,-0.453,-0.454,0.4531,-0.4243,0.4828,0.4243,0.4828,0.454,0.4531,0.454,-0.453,0.4243,-0.4828,-0.4243,-0.4828,0*%
%AMMACRO7*4,1,8,-0.1711,-0.4508,-0.2008,-0.421,-0.2008,0.4211,-0.1711,0.4508,0.171,0.4508,0.2008,0.4211,0.2008,-0.421,0.171,-0.4508,-0.1711,-0.4508,0*%
%AMMACRO8*4,1,8,-0.1711,-0.4757,-0.2008,-0.446,-0.2008,0.446,-0.1711,0.4757,0.171,0.4757,0.2008,0.446,0.2008,-0.446,0.171,-0.4757,-0.1711,-0.4757,0*%
%AMMACRO9*4,1,8,-0.8295,-0.889,-0.889,-0.8295,-0.889,0.8295,-0.8295,0.889,0.8295,0.889,0.889,0.8295,0.889,-0.8295,0.8295,-0.889,-0.8295,-0.889,0*%
%ADD10MACRO1*%
%ADD11MACRO2*%
%ADD12C,1.7780*%
%ADD13C,1.9016*%
%ADD14C,2.6016*%
%ADD15O,1.701546X1.701597*%
%ADD16O,2.101596X3.101594*%
%ADD17O,0.0146X3.101594*%
%ADD18C,1.3716*%
%ADD19MACRO3*%
%ADD20MACRO4*%
%ADD21C,2.1016*%
%ADD22MACRO5*%
%ADD23MACRO6*%
%ADD24MACRO7*%
%ADD25MACRO8*%
%ADD26MACRO9*%

%LPD*%
D10*
G01*
X5888101Y6991502D03*
G01*
X6142101Y6991502D03*
G01*
X6396101Y6991502D03*
G01*
X6650101Y6991502D03*
G01*
X6904101Y6991502D03*
D11*
G01*
X12284709Y6067031D03*
D12*
G01*
X12030709Y6067018D03*
G01*
X11776709Y6067018D03*
G01*
X11522709Y6067018D03*
G01*
X11268709Y6067018D03*
G01*
X11014709Y6067018D03*
G01*
X10760709Y6067018D03*
G01*
X10506709Y6067018D03*
G01*
X10252709Y6067018D03*
G01*
X9998709Y6067018D03*
G01*
X9744709Y6067018D03*
G01*
X9490709Y6067018D03*
G01*
X9236709Y6067018D03*
G01*
X10252709Y-1806981D03*
G01*
X10506709Y-1806981D03*
G01*
X10760709Y-1806981D03*
D11*
G01*
X11014709Y-1806968D03*
D12*
G01*
X8982709Y6067018D03*
D13*
G01*
X18151754Y1388287D03*
G01*
X18151754Y1642287D03*
G01*
X18151754Y1896287D03*
G01*
X17532756Y2515285D03*
G01*
X17278756Y2515285D03*
G01*
X17024756Y2515285D03*
D14*
G01*
X16646270Y2142286D03*
G01*
X16646270Y1142288D03*
G01*
X17911267Y1142288D03*
G01*
X17911267Y2142286D03*
D15*
G01*
X2594000Y7848600D03*
G01*
X2993999Y7848600D03*
G01*
X2794000Y7848600D03*
D16*
G01*
X3209010Y7848600D03*
G01*
X2378989Y7848600D03*
D13*
G01*
X4029354Y1388287D03*
G01*
X4029354Y1642287D03*
G01*
X4029354Y1896287D03*
G01*
X3410356Y2515285D03*
G01*
X3156356Y2515285D03*
G01*
X2902356Y2515285D03*
D14*
G01*
X2523845Y2142286D03*
G01*
X2523845Y1142288D03*
G01*
X3788841Y1142288D03*
G01*
X3788841Y2142286D03*
D18*
G01*
X3194050Y7010400D03*
G01*
X3371850Y6997700D03*
D19*
G01*
X5827702Y2908300D03*
G01*
X5627697Y2908300D03*
G01*
X6602402Y4381500D03*
G01*
X6402397Y4381500D03*
D20*
G01*
X4965700Y3924300D03*
D21*
G01*
X4965700Y3670300D03*
D22*
G01*
X5778500Y3709275D03*
G01*
X5778500Y3859924D03*
G01*
X5765800Y4052175D03*
G01*
X5765800Y4202824D03*
G01*
X6159500Y3453524D03*
G01*
X6159500Y3302875D03*
D23*
G01*
X5893675Y3149600D03*
G01*
X6044324Y3149600D03*
D22*
G01*
X6146800Y4240924D03*
G01*
X6146800Y4090275D03*
G01*
X5994400Y4202824D03*
G01*
X5994400Y4052175D03*
D24*
G01*
X6158691Y3880540D03*
G01*
X6208703Y3880540D03*
G01*
X6108703Y3880540D03*
G01*
X6058691Y3880540D03*
G01*
X6008704Y3880540D03*
D25*
G01*
X6008704Y3587069D03*
G01*
X6058691Y3587069D03*
G01*
X6108703Y3587069D03*
G01*
X6158691Y3587069D03*
G01*
X6208703Y3587069D03*
G36*
X5988705Y3646299D02*
G01*
X5988215Y3646322D01*
X5987729Y3646396D01*
X5987252Y3646515D01*
X5986790Y3646680D01*
X5986348Y3646888D01*
X5985926Y3647142D01*
X5985532Y3647434D01*
X5985169Y3647765D01*
X5984839Y3648128D01*
X5984547Y3648522D01*
X5984293Y3648943D01*
X5984085Y3649385D01*
X5983919Y3649847D01*
X5983800Y3650325D01*
X5983726Y3650810D01*
X5983704Y3651300D01*
X5983704Y3691303D01*
X5928700Y3691303D01*
X5928210Y3691326D01*
X5927725Y3691399D01*
X5927247Y3691519D01*
X5926785Y3691684D01*
X5926343Y3691892D01*
X5925921Y3692146D01*
X5925527Y3692438D01*
X5925164Y3692768D01*
X5924834Y3693132D01*
X5924542Y3693525D01*
X5924288Y3693947D01*
X5924080Y3694389D01*
X5923915Y3694851D01*
X5923795Y3695329D01*
X5923721Y3695814D01*
X5923699Y3696304D01*
X5923699Y3721305D01*
X5923721Y3721795D01*
X5923795Y3722281D01*
X5923915Y3722758D01*
X5924080Y3723220D01*
X5924288Y3723662D01*
X5924542Y3724084D01*
X5924834Y3724478D01*
X5925164Y3724841D01*
X5925527Y3725171D01*
X5925921Y3725463D01*
X5926343Y3725717D01*
X5926785Y3725926D01*
X5927247Y3726091D01*
X5927725Y3726210D01*
X5928210Y3726284D01*
X5928700Y3726306D01*
X5983704Y3726306D01*
X5983704Y3741303D01*
X5928700Y3741303D01*
X5928210Y3741326D01*
X5927725Y3741399D01*
X5927247Y3741519D01*
X5926785Y3741684D01*
X5926343Y3741892D01*
X5925921Y3742146D01*
X5925527Y3742438D01*
X5925164Y3742768D01*
X5924834Y3743131D01*
X5924542Y3743525D01*
X5924288Y3743947D01*
X5924080Y3744389D01*
X5923915Y3744851D01*
X5923795Y3745329D01*
X5923721Y3745814D01*
X5923699Y3746304D01*
X5923699Y3771303D01*
X5923721Y3771793D01*
X5923795Y3772278D01*
X5923915Y3772755D01*
X5924080Y3773218D01*
X5924288Y3773660D01*
X5924542Y3774081D01*
X5924834Y3774475D01*
X5925164Y3774838D01*
X5925527Y3775168D01*
X5925921Y3775461D01*
X5926343Y3775715D01*
X5926785Y3775923D01*
X5927247Y3776088D01*
X5927725Y3776207D01*
X5928210Y3776281D01*
X5928700Y3776304D01*
X5983704Y3776304D01*
X5983704Y3816299D01*
X5983726Y3816789D01*
X5983800Y3817274D01*
X5983919Y3817752D01*
X5984085Y3818214D01*
X5984293Y3818656D01*
X5984547Y3819077D01*
X5984839Y3819471D01*
X5985169Y3819834D01*
X5985532Y3820165D01*
X5985926Y3820457D01*
X5986348Y3820711D01*
X5986790Y3820919D01*
X5987252Y3821084D01*
X5987729Y3821203D01*
X5988215Y3821277D01*
X5988705Y3821300D01*
X6228704Y3821300D01*
X6229195Y3821277D01*
X6229680Y3821203D01*
X6230157Y3821084D01*
X6230620Y3820919D01*
X6231061Y3820711D01*
X6231483Y3820457D01*
X6231877Y3820165D01*
X6232240Y3819834D01*
X6232570Y3819471D01*
X6232862Y3819077D01*
X6233116Y3818656D01*
X6233325Y3818214D01*
X6233490Y3817752D01*
X6233609Y3817274D01*
X6233683Y3816789D01*
X6233706Y3816299D01*
X6233706Y3776301D01*
X6288699Y3776301D01*
X6289189Y3776278D01*
X6289675Y3776205D01*
X6290152Y3776085D01*
X6290614Y3775920D01*
X6291056Y3775712D01*
X6291478Y3775458D01*
X6291872Y3775166D01*
X6292235Y3774836D01*
X6292565Y3774473D01*
X6292857Y3774079D01*
X6293111Y3773657D01*
X6293319Y3773215D01*
X6293484Y3772753D01*
X6293604Y3772275D01*
X6293678Y3771790D01*
X6293700Y3771300D01*
X6293700Y3746299D01*
X6293678Y3745809D01*
X6293604Y3745323D01*
X6293484Y3744846D01*
X6293319Y3744384D01*
X6293111Y3743942D01*
X6292857Y3743520D01*
X6292565Y3743126D01*
X6292235Y3742763D01*
X6291872Y3742433D01*
X6291478Y3742141D01*
X6291056Y3741887D01*
X6290614Y3741679D01*
X6290152Y3741513D01*
X6289675Y3741394D01*
X6289189Y3741320D01*
X6288699Y3741298D01*
X6233706Y3741298D01*
X6233706Y3726301D01*
X6288699Y3726301D01*
X6289189Y3726279D01*
X6289675Y3726205D01*
X6290152Y3726086D01*
X6290614Y3725920D01*
X6291056Y3725712D01*
X6291478Y3725458D01*
X6291872Y3725166D01*
X6292235Y3724836D01*
X6292565Y3724473D01*
X6292857Y3724079D01*
X6293111Y3723657D01*
X6293319Y3723215D01*
X6293484Y3722753D01*
X6293604Y3722276D01*
X6293678Y3721790D01*
X6293700Y3721300D01*
X6293700Y3696299D01*
X6293678Y3695809D01*
X6293604Y3695324D01*
X6293484Y3694846D01*
X6293319Y3694384D01*
X6293111Y3693942D01*
X6292857Y3693520D01*
X6292565Y3693126D01*
X6292235Y3692763D01*
X6291872Y3692433D01*
X6291478Y3692141D01*
X6291056Y3691887D01*
X6290614Y3691679D01*
X6290152Y3691514D01*
X6289675Y3691394D01*
X6289189Y3691321D01*
X6288699Y3691298D01*
X6233706Y3691298D01*
X6233706Y3651300D01*
X6233683Y3650810D01*
X6233609Y3650325D01*
X6233490Y3649847D01*
X6233325Y3649385D01*
X6233116Y3648943D01*
X6232862Y3648522D01*
X6232570Y3648128D01*
X6232240Y3647765D01*
X6231877Y3647434D01*
X6231483Y3647142D01*
X6231061Y3646888D01*
X6230620Y3646680D01*
X6230157Y3646515D01*
X6229680Y3646396D01*
X6229195Y3646322D01*
X6228704Y3646299D01*
G37*
D12*
G01*
X11722100Y-1701800D03*
G01*
X11722100Y-1447800D03*
G01*
X11722100Y-939800D03*
G01*
X11722100Y-1193800D03*
G01*
X11722100Y-177800D03*
G01*
X11722100Y76200D03*
G01*
X11722100Y-431800D03*
G01*
X11722100Y-685800D03*
G01*
X11722100Y1346200D03*
G01*
X11722100Y1600200D03*
G01*
X11722100Y2108200D03*
G01*
X11722100Y1854200D03*
G01*
X11722100Y838200D03*
G01*
X11722100Y1092200D03*
G01*
X11722100Y584200D03*
G01*
X11722100Y330200D03*
G01*
X11722100Y2362200D03*
G01*
X11722100Y2616200D03*
D26*
G01*
X11722100Y2870200D03*
D12*
G01*
X11722100Y-1955800D03*
G01*
X11722100Y-2209800D03*
G01*
X11722100Y-2463800D03*
G01*
X9436100Y1092200D03*
G01*
X9436100Y1346200D03*
G01*
X9436100Y1854200D03*
G01*
X9436100Y1600200D03*
G01*
X9436100Y2616200D03*
G01*
X9436100Y2870200D03*
G01*
X9436100Y2362200D03*
G01*
X9436100Y2108200D03*
G01*
X9436100Y76200D03*
G01*
X9436100Y330200D03*
G01*
X9436100Y838200D03*
G01*
X9436100Y584200D03*
G01*
X9436100Y-431800D03*
G01*
X9436100Y-177800D03*
G01*
X9436100Y-685800D03*
G01*
X9436100Y-939800D03*
G01*
X9436100Y-1193800D03*
G01*
X9436100Y-1447800D03*
G01*
X9436100Y-1701800D03*
G01*
X9436100Y-1955800D03*
G01*
X9436100Y-2209800D03*
G01*
X9436100Y-2463800D03*
M02*
