G04 Layer: BottomSilkscreenLayer*
G04 EasyEDA v6.5.54, 2026-06-09 21:10:49*
G04 bbe8056ecce14424a002107b0730e2a7,e59cfd7f91104955829aa9c13f43603c,10*
G04 Gerber Generator version 0.2*
G04 Scale: 100 percent, Rotated: No, Reflected: No *
G04 Dimensions in millimeters *
G04 leading zeros omitted , absolute positions ,4 integer and 5 decimal *
%FSLAX45Y45*%
%MOMM*%

%ADD10C,0.1524*%
%ADD11C,0.2032*%
%ADD12C,0.2030*%
%ADD13C,0.1520*%
%ADD14C,0.2540*%
%ADD15C,0.0143*%
%ADD16C,0.1500*%

%LPD*%
D10*
X3138170Y7227315D02*
G01*
X3189986Y7227315D01*
X3195320Y7180579D01*
X3189986Y7185660D01*
X3174491Y7190994D01*
X3158743Y7190994D01*
X3143250Y7185660D01*
X3132836Y7175500D01*
X3127756Y7159752D01*
X3127756Y7149337D01*
X3132836Y7133844D01*
X3143250Y7123429D01*
X3158743Y7118350D01*
X3174491Y7118350D01*
X3189986Y7123429D01*
X3195320Y7128510D01*
X3200400Y7138923D01*
X3093465Y7227315D02*
G01*
X3051809Y7118350D01*
X3010154Y7227315D02*
G01*
X3051809Y7118350D01*
X3427729Y6780784D02*
G01*
X3375913Y6780784D01*
X3370579Y6827520D01*
X3375913Y6822439D01*
X3391408Y6817105D01*
X3407156Y6817105D01*
X3422650Y6822439D01*
X3433063Y6832600D01*
X3438143Y6848347D01*
X3438143Y6858762D01*
X3433063Y6874255D01*
X3422650Y6884670D01*
X3407156Y6889750D01*
X3391408Y6889750D01*
X3375913Y6884670D01*
X3370579Y6879589D01*
X3365500Y6869176D01*
X3472434Y6780784D02*
G01*
X3514090Y6889750D01*
X3555745Y6780784D02*
G01*
X3514090Y6889750D01*
X3595115Y6806692D02*
G01*
X3595115Y6801612D01*
X3600450Y6791197D01*
X3605529Y6785863D01*
X3615943Y6780784D01*
X3636772Y6780784D01*
X3647186Y6785863D01*
X3652265Y6791197D01*
X3657600Y6801612D01*
X3657600Y6812026D01*
X3652265Y6822439D01*
X3641852Y6837934D01*
X3590036Y6889750D01*
X3662679Y6889750D01*
X5908819Y2817939D02*
G01*
X5767819Y2817939D01*
X5767819Y2998660D02*
G01*
X5908819Y2998660D01*
X5924059Y2983420D02*
G01*
X5924059Y2833179D01*
X5546580Y2817939D02*
G01*
X5687580Y2817939D01*
X5687580Y2998660D02*
G01*
X5546580Y2998660D01*
X5531340Y2983420D02*
G01*
X5531340Y2833179D01*
X6683519Y4291139D02*
G01*
X6542519Y4291139D01*
X6542519Y4471860D02*
G01*
X6683519Y4471860D01*
X6698759Y4456620D02*
G01*
X6698759Y4306379D01*
X6321280Y4291139D02*
G01*
X6462280Y4291139D01*
X6462280Y4471860D02*
G01*
X6321280Y4471860D01*
X6306040Y4456620D02*
G01*
X6306040Y4306379D01*
D11*
X4838700Y3543300D02*
G01*
X5092700Y3543300D01*
X5092700Y4051300D01*
X4838700Y4051300D01*
X4838700Y3860800D01*
D12*
X4838700Y3543300D02*
G01*
X4838700Y3860800D01*
D10*
X5844560Y3741978D02*
G01*
X5844560Y3646091D01*
X5712439Y3646091D01*
X5712439Y3741978D01*
X5844560Y3827221D02*
G01*
X5844560Y3923108D01*
X5712439Y3923108D01*
X5712439Y3827221D01*
X5831860Y4084878D02*
G01*
X5831860Y3988991D01*
X5699739Y3988991D01*
X5699739Y4084878D01*
X5831860Y4170121D02*
G01*
X5831860Y4266008D01*
X5699739Y4266008D01*
X5699739Y4170121D01*
X6093439Y3420821D02*
G01*
X6093439Y3516708D01*
X6225560Y3516708D01*
X6225560Y3420821D01*
X6093439Y3335578D02*
G01*
X6093439Y3239691D01*
X6225560Y3239691D01*
X6225560Y3335578D01*
X5926378Y3083539D02*
G01*
X5830491Y3083539D01*
X5830491Y3215660D01*
X5926378Y3215660D01*
X6011621Y3083539D02*
G01*
X6107508Y3083539D01*
X6107508Y3215660D01*
X6011621Y3215660D01*
X6080739Y4208221D02*
G01*
X6080739Y4304108D01*
X6212860Y4304108D01*
X6212860Y4208221D01*
X6080739Y4122978D02*
G01*
X6080739Y4027091D01*
X6212860Y4027091D01*
X6212860Y4122978D01*
X5928339Y4170121D02*
G01*
X5928339Y4266008D01*
X6060460Y4266008D01*
X6060460Y4170121D01*
X5928339Y4084878D02*
G01*
X5928339Y3988991D01*
X6060460Y3988991D01*
X6060460Y4084878D01*
D13*
X5975690Y3883799D02*
G01*
X5958700Y3883799D01*
X6258699Y3789314D02*
G01*
X6258699Y3883799D01*
X6241717Y3883799D01*
X6241717Y3583800D02*
G01*
X6258699Y3583800D01*
X6258699Y3678285D01*
X5958700Y3678290D02*
G01*
X5958700Y3583800D01*
X5975690Y3583800D01*
X5958700Y3883799D02*
G01*
X5958700Y3789316D01*
D14*
X9563100Y3009900D02*
G01*
X9563100Y-2590800D01*
X11595100Y3009900D02*
G01*
X11595100Y-2590800D01*
X11595100Y-2590800D02*
G01*
X11849100Y-2590800D01*
X9563100Y-2590800D02*
G01*
X9309100Y-2590800D01*
X11849100Y2743200D02*
G01*
X11595100Y2743200D01*
X11849100Y3009900D02*
G01*
X9309100Y3009900D01*
X9309100Y-3263900D01*
X11849100Y-3263900D01*
X11849100Y3009900D01*
D10*
G75*
G01*
X5908820Y2998660D02*
G02*
X5924060Y2983420I0J-15240D01*
G75*
G01*
X5924060Y2833180D02*
G02*
X5908820Y2817940I-15240J0D01*
G75*
G01*
X5546580Y2998660D02*
G03*
X5531340Y2983420I0J-15240D01*
G75*
G01*
X5531340Y2833180D02*
G03*
X5546580Y2817940I15240J0D01*
G75*
G01*
X6683520Y4471860D02*
G02*
X6698760Y4456620I0J-15240D01*
G75*
G01*
X6698760Y4306380D02*
G02*
X6683520Y4291140I-15240J0D01*
G75*
G01*
X6321280Y4471860D02*
G03*
X6306040Y4456620I0J-15240D01*
G75*
G01*
X6306040Y4306380D02*
G03*
X6321280Y4291140I15240J0D01*
D16*
G75*
G01
X6263691Y3555797D02*
G03X6263691Y3555797I-7493J0D01*
M02*
