G04 Layer: TopLayer*
G04 EasyEDA v6.5.54, 2026-06-09 21:10:49*
G04 bbe8056ecce14424a002107b0730e2a7,e59cfd7f91104955829aa9c13f43603c,10*
G04 Gerber Generator version 0.2*
G04 Scale: 100 percent, Rotated: No, Reflected: No *
G04 Dimensions in millimeters *
G04 leading zeros omitted , absolute positions ,4 integer and 5 decimal *
%FSLAX45Y45*%
%MOMM*%

%AMMACRO1*21,1,$1,$2,0,0,$3*%
%ADD10C,0.3000*%
%ADD11C,0.2000*%
%ADD12R,0.8000X0.8000*%
%ADD13R,0.9000X3.0000*%
%ADD14R,1.0000X1.3000*%
%ADD15MACRO1,1.2X0.8X45.0000*%
%ADD16MACRO1,1.2X0.8X-45.0000*%
%ADD17MACRO1,0.864X0.8065X90.0000*%
%ADD18MACRO1,0.864X0.8065X-90.0000*%
%ADD19C,0.0170*%
%ADD20R,2.0000X1.2000*%
%ADD21MACRO1,0.864X0.8065X0.0000*%
%ADD22R,0.8640X0.8065*%
%ADD23R,1.3081X1.3081*%
%ADD24MACRO1,1.6764X1.6764X0.0000*%
%ADD25C,1.6764*%
%ADD26C,1.8000*%
%ADD27C,2.5000*%
%ADD28O,1.599946X1.599997*%
%ADD29O,1.999996X2.999994*%
%ADD30MACRO1,2X2X-90.0000*%
%ADD31C,2.0000*%
%ADD32C,1.5748*%
%ADD33MACRO1,1.5748X1.5748X0.0000*%
%ADD34C,0.6200*%

%LPD*%
D10*
X11722100Y2870200D02*
G01*
X11722100Y3276600D01*
X13872895Y5427395D01*
X14048003Y5427395D01*
D11*
X4029456Y1896363D02*
G01*
X3361436Y1896363D01*
X2902458Y2355342D01*
X2902458Y2515362D01*
X6234435Y3302254D02*
G01*
X5689600Y3847084D01*
X5689600Y3924300D01*
X5892800Y4127500D01*
X5892800Y4191000D01*
X5918200Y4216400D01*
X5994400Y4216400D01*
X6247109Y3061053D02*
G01*
X6350000Y3163948D01*
X6350000Y4203700D01*
X6311900Y4241800D01*
X6146800Y4241800D01*
X6096000Y3060700D02*
G01*
X6096353Y3060346D01*
X6097290Y3060346D01*
X6070600Y3302000D02*
G01*
X6070953Y3301646D01*
X6084590Y3301646D01*
X5778500Y3848100D02*
G01*
X5778500Y3886200D01*
X5880100Y3987800D01*
X6235700Y3987800D01*
X6527800Y4622800D02*
G01*
X6248400Y4622800D01*
X6142100Y4729098D01*
X6142100Y6991502D01*
X6602475Y4381500D02*
G01*
X6602475Y3328923D01*
X7061200Y2870200D01*
X9436100Y2870200D01*
X15786100Y8204200D02*
G01*
X15773400Y8191500D01*
X15773400Y7899400D01*
X15698724Y7823454D01*
X15786100Y8204200D02*
G01*
X15760903Y8229396D01*
X15430804Y8229396D01*
X15430804Y8229396D02*
G01*
X15328798Y8127390D01*
X15328798Y7968386D01*
X15786100Y8204200D02*
G01*
X15811322Y8229422D01*
X16166795Y8229422D01*
X16166795Y8229422D02*
G01*
X16268801Y8127415D01*
X16268801Y7968386D01*
X15498800Y7823380D02*
G01*
X15494000Y7818579D01*
X15494000Y7631836D01*
X15898875Y7823454D02*
G01*
X15900400Y7631937D01*
X16098799Y7823377D02*
G01*
X16116300Y7805877D01*
X16116300Y7631836D01*
X15698774Y7823377D02*
G01*
X15698774Y5425338D01*
X15289936Y5016500D01*
X15289931Y5016500D02*
G01*
X15645531Y4660900D01*
X17133163Y4660900D01*
X17133163Y4660900D02*
G01*
X17532758Y4261304D01*
X17532758Y2515288D01*
X17532756Y2515285D02*
G01*
X17284700Y2267229D01*
X17284700Y1485900D01*
X17382312Y1388287D01*
X18151754Y1388287D01*
X17291481Y4502581D02*
G01*
X17297400Y4508500D01*
X18961100Y4508500D01*
X19062700Y4610100D01*
X19076263Y4610100D01*
X17283836Y4660900D02*
G01*
X17270222Y4674514D01*
X17270222Y4910378D01*
X19226936Y4610100D02*
G01*
X19238722Y4621885D01*
X19238722Y4834178D01*
X15139263Y5016500D02*
G01*
X15118384Y5037378D01*
X14908022Y5037378D01*
X15900400Y7481163D02*
G01*
X16116300Y7481163D01*
X9490709Y6067044D02*
G01*
X9486900Y6070854D01*
X9486900Y7226300D01*
X9525000Y7264400D01*
X10972800Y7264400D01*
X11014709Y7222489D01*
X11014709Y6067044D01*
X9998709Y6067044D02*
G01*
X9994900Y6070854D01*
X9994900Y6997700D01*
X10058400Y7061200D01*
X10693400Y7061200D01*
X10760709Y6993889D01*
X10760709Y6067044D01*
X11776709Y6067018D02*
G01*
X11424691Y5715000D01*
X10680700Y5715000D01*
X10414000Y5791200D02*
G01*
X10261600Y5638800D01*
X10261600Y5435600D01*
X11722100Y-2209800D02*
G01*
X10833100Y-3098800D01*
X6731000Y-3098800D01*
X5829300Y-2197100D01*
X5827699Y2908300D01*
X9359900Y5664200D02*
G01*
X8902700Y5664200D01*
X8559800Y5321300D01*
X8559800Y4394200D01*
X9575800Y5473700D02*
G01*
X9017000Y5473700D01*
X8737600Y5194300D01*
X8737600Y4381500D01*
X17278756Y2515285D02*
G01*
X17112970Y2349500D01*
X16383000Y2349500D01*
X16141700Y2108200D01*
X11722100Y2108200D01*
X18151754Y1642287D02*
G01*
X18155742Y1638300D01*
X18389600Y1638300D01*
X18643600Y1384300D01*
X18643600Y889000D01*
X18440400Y685800D01*
X16268700Y685800D01*
X15760700Y1193800D01*
X15760700Y1701800D01*
X15608300Y1854200D01*
X11722100Y1854200D01*
X4029354Y1642287D02*
G01*
X4173042Y1498600D01*
X5651500Y1498600D01*
X5956300Y1498600D02*
G01*
X6235700Y1219200D01*
X10680700Y1219200D01*
X10807700Y1346200D01*
X11722100Y1346200D01*
X3156356Y2515285D02*
G01*
X3701770Y3060700D01*
X5867400Y3060700D01*
X7200900Y1727200D01*
X10591800Y1727200D01*
X10718800Y1600200D01*
X11722100Y1600200D01*
X6396100Y6991502D02*
G01*
X7416800Y5970803D01*
X7416800Y3149600D01*
X6650100Y6991502D02*
G01*
X7734300Y5907303D01*
X7734300Y3175000D01*
X7416800Y584200D02*
G01*
X7543800Y711200D01*
X10998200Y711200D01*
X11125200Y584200D01*
X11722100Y584200D01*
X7734300Y317500D02*
G01*
X7861300Y190500D01*
X11239500Y190500D01*
X11379200Y330200D01*
X11722100Y330200D01*
X10934700Y3187700D02*
G01*
X9855200Y2108200D01*
X9436100Y2108200D01*
X17297400Y3784600D02*
G01*
X15748000Y2235200D01*
X11557000Y2235200D01*
X11176000Y1854200D01*
X9436100Y1854200D01*
X15900400Y7631836D02*
G01*
X15975736Y7556500D01*
X16548100Y7556500D01*
X17208500Y6896100D01*
X19761200Y6896100D01*
X20053300Y6604000D01*
X20053300Y-584200D01*
X18554700Y-2082800D01*
X12509500Y-2082800D01*
X12128500Y-1701800D01*
X11722100Y-1701800D01*
X16116300Y7631836D02*
G01*
X16231463Y7747000D01*
X16560800Y7747000D01*
X17157700Y7150100D01*
X19875500Y7150100D01*
X20256500Y6769100D01*
X20256500Y-1384300D01*
X19227800Y-2413000D01*
X12369800Y-2413000D01*
X11912600Y-1955800D01*
X11722100Y-1955800D01*
D10*
X14047977Y5427471D02*
G01*
X10726927Y5427471D01*
X10506709Y5647689D01*
X10506709Y6067018D01*
D12*
G01*
X6247104Y3061030D03*
G01*
X6097295Y3060344D03*
G01*
X6234404Y3302330D03*
G01*
X6084595Y3301644D03*
D13*
G01*
X16268801Y7968386D03*
G01*
X15328798Y7968386D03*
D14*
G01*
X15698774Y7823377D03*
G01*
X15898774Y7823377D03*
G01*
X15498800Y7823377D03*
G01*
X16098799Y7823377D03*
D15*
G01*
X15430797Y8229386D03*
D16*
G01*
X16166797Y8229432D03*
D17*
G01*
X17283824Y4660900D03*
G01*
X17133175Y4660900D03*
D18*
G01*
X15139275Y5016500D03*
G01*
X15289924Y5016500D03*
D17*
G01*
X19226924Y4610100D03*
G01*
X19076275Y4610100D03*
D20*
G01*
X16410203Y5300395D03*
G01*
X17270222Y5300395D03*
G01*
X16410203Y4910378D03*
G01*
X17270222Y4910378D03*
G01*
X14048003Y5427395D03*
G01*
X14908022Y5427395D03*
G01*
X14048003Y5037378D03*
G01*
X14908022Y5037378D03*
G01*
X18378703Y5224195D03*
G01*
X19238722Y5224195D03*
G01*
X18378703Y4834178D03*
G01*
X19238722Y4834178D03*
D21*
G01*
X15494000Y7481175D03*
D22*
G01*
X15494000Y7631836D03*
D21*
G01*
X15900400Y7631824D03*
D22*
G01*
X15900400Y7481163D03*
D21*
G01*
X16116300Y7631824D03*
D22*
G01*
X16116300Y7481163D03*
D23*
G01*
X5888100Y6991502D03*
G01*
X6142100Y6991502D03*
G01*
X6396100Y6991502D03*
G01*
X6650100Y6991502D03*
G01*
X6904100Y6991502D03*
D24*
G01*
X12284710Y6067031D03*
D25*
G01*
X12030709Y6067018D03*
G01*
X11776709Y6067018D03*
G01*
X11522709Y6067018D03*
G01*
X11268709Y6067018D03*
G01*
X11014709Y6067018D03*
G01*
X10760709Y6067018D03*
G01*
X10506709Y6067018D03*
G01*
X10252709Y6067018D03*
G01*
X9998709Y6067018D03*
G01*
X9744709Y6067018D03*
G01*
X9490709Y6067018D03*
G01*
X9236709Y6067018D03*
G01*
X10252709Y-1806981D03*
G01*
X10506709Y-1806981D03*
G01*
X10760709Y-1806981D03*
D24*
G01*
X11014710Y-1806968D03*
D25*
G01*
X8982709Y6067018D03*
D26*
G01*
X18151754Y1388287D03*
G01*
X18151754Y1642287D03*
G01*
X18151754Y1896287D03*
G01*
X17532756Y2515285D03*
G01*
X17278756Y2515285D03*
G01*
X17024756Y2515285D03*
D27*
G01*
X16646270Y2142286D03*
G01*
X16646270Y1142288D03*
G01*
X17911267Y1142288D03*
G01*
X17911267Y2142286D03*
D28*
G01*
X2594000Y7848600D03*
G01*
X2993999Y7848600D03*
G01*
X2794000Y7848600D03*
D29*
G01*
X3209010Y7848600D03*
G01*
X2378989Y7848600D03*
D26*
G01*
X4029354Y1388287D03*
G01*
X4029354Y1642287D03*
G01*
X4029354Y1896287D03*
G01*
X3410356Y2515285D03*
G01*
X3156356Y2515285D03*
G01*
X2902356Y2515285D03*
D27*
G01*
X2523845Y2142286D03*
G01*
X2523845Y1142288D03*
G01*
X3788841Y1142288D03*
G01*
X3788841Y2142286D03*
D30*
G01*
X4965700Y3924300D03*
D31*
G01*
X4965700Y3670300D03*
D32*
G01*
X11722100Y-1701800D03*
G01*
X11722100Y-1447800D03*
G01*
X11722100Y-939800D03*
G01*
X11722100Y-1193800D03*
G01*
X11722100Y-177800D03*
G01*
X11722100Y76200D03*
G01*
X11722100Y-431800D03*
G01*
X11722100Y-685800D03*
G01*
X11722100Y1346200D03*
G01*
X11722100Y1600200D03*
G01*
X11722100Y2108200D03*
G01*
X11722100Y1854200D03*
G01*
X11722100Y838200D03*
G01*
X11722100Y1092200D03*
G01*
X11722100Y584200D03*
G01*
X11722100Y330200D03*
G01*
X11722100Y2362200D03*
G01*
X11722100Y2616200D03*
D33*
G01*
X11722100Y2870200D03*
D32*
G01*
X11722100Y-1955800D03*
G01*
X11722100Y-2209800D03*
G01*
X11722100Y-2463800D03*
G01*
X9436100Y1092200D03*
G01*
X9436100Y1346200D03*
G01*
X9436100Y1854200D03*
G01*
X9436100Y1600200D03*
G01*
X9436100Y2616200D03*
G01*
X9436100Y2870200D03*
G01*
X9436100Y2362200D03*
G01*
X9436100Y2108200D03*
G01*
X9436100Y76200D03*
G01*
X9436100Y330200D03*
G01*
X9436100Y838200D03*
G01*
X9436100Y584200D03*
G01*
X9436100Y-431800D03*
G01*
X9436100Y-177800D03*
G01*
X9436100Y-685800D03*
G01*
X9436100Y-939800D03*
G01*
X9436100Y-1193800D03*
G01*
X9436100Y-1447800D03*
G01*
X9436100Y-1701800D03*
G01*
X9436100Y-1955800D03*
G01*
X9436100Y-2209800D03*
G01*
X9436100Y-2463800D03*
D34*
G01*
X5778500Y3848100D03*
G01*
X6235700Y3987800D03*
G01*
X6070600Y3302000D03*
G01*
X6096000Y3060700D03*
G01*
X6146800Y4241800D03*
G01*
X5994400Y4216400D03*
G01*
X6527800Y4622800D03*
G01*
X6602475Y4381500D03*
G01*
X15786100Y8204200D03*
G01*
X14048003Y5427395D03*
G01*
X16410203Y5300395D03*
G01*
X18378703Y5224195D03*
G01*
X16116300Y7481163D03*
G01*
X15900400Y7481163D03*
G01*
X15494000Y7480300D03*
G01*
X10680700Y5715000D03*
G01*
X10414000Y5791200D03*
G01*
X10261600Y5435600D03*
G01*
X5827699Y2908300D03*
G01*
X9359900Y5664200D03*
G01*
X9575800Y5473700D03*
G01*
X8559800Y4394200D03*
G01*
X8737600Y4381500D03*
G01*
X5651500Y1498600D03*
G01*
X5956300Y1498600D03*
G01*
X7416800Y3149600D03*
G01*
X7734300Y3175000D03*
G01*
X7416800Y584200D03*
G01*
X7734300Y317500D03*
G01*
X14048003Y5037378D03*
G01*
X10934700Y3187700D03*
G01*
X16410203Y4910378D03*
G01*
X18378703Y4834178D03*
G01*
X17297400Y3784600D03*
G01*
X15494000Y7631836D03*
M02*
